<svg width="246" height="32" viewBox="0 0 246 32" fill="none" xmlns="http://www.w3.org/2000/svg">
<path d="M0.275 24C0.125 24 0.0833333 23.8917 0.15 23.675C0.15 23.625 0.158333 23.5833 0.175 23.55C0.175 23.5167 0.183333 23.475 0.2 23.425C0.216667 23.375 0.241667 23.3 0.275 23.2L0.5 22.275C0.533333 22.175 0.591667 22 0.675 21.75C0.758333 21.5 0.816667 21.2667 0.85 21.05C0.933333 20.65 1.09167 20.0417 1.325 19.225L1.525 18.525C1.84167 17.4917 2.04167 16.7667 2.125 16.35L2.475 15.025C2.64167 14.475 2.74167 14.125 2.775 13.975C2.89167 13.475 3.05833 12.85 3.275 12.1L3.45 11.4L3.6 10.875C3.76667 10.3083 3.90833 9.9 4.025 9.65C4.05833 9.55 4.175 9.20833 4.375 8.625C4.59167 8.025 4.73333 7.55 4.8 7.2C4.91667 6.8 5.03333 6.5 5.15 6.3C5.28333 6.1 5.45833 6 5.675 6C5.75833 6 5.84167 6.075 5.925 6.225C6.00833 6.375 6.09167 6.55833 6.175 6.775C6.25833 6.99167 6.31667 7.15 6.35 7.25C6.48333 7.56667 6.71667 8.35833 7.05 9.625L7.25 10.325C7.26667 10.4583 7.54167 11.275 8.075 12.775L8.55 14.15L9 15.325C9.46667 16.6417 9.76667 17.4417 9.9 17.725C10.4833 19.4917 10.825 20.5583 10.925 20.925C11.0417 21.3583 11.225 21.9 11.475 22.55C11.7417 23.2 11.8917 23.5667 11.925 23.65C11.975 23.7667 12 23.85 12 23.9C12 23.9667 11.9083 24 11.725 24H10.325C10.2583 24 10.2 23.9917 10.15 23.975C10.1167 23.9417 10.0833 23.875 10.05 23.775C9.98333 23.5917 9.89167 23.2917 9.775 22.875C9.625 22.4583 9.525 22.0833 9.475 21.75C9.425 21.5 9.34167 21.2 9.225 20.85C9.125 20.5 9.03333 20.2333 8.95 20.05C8.8 19.7333 8.66667 19.375 8.55 18.975L8.325 18.25C8.24167 18.0667 8.175 17.9583 8.125 17.925C8.09167 17.875 8.025 17.85 7.925 17.85C7.575 17.85 7.31667 17.8583 7.15 17.875L6.075 17.925C5.94167 17.9417 5.325 17.95 4.225 17.95H2.7H2.65C2.55 17.95 2.475 18.0417 2.425 18.225L2.375 18.475L2.275 18.95C2.24167 19.05 2.13333 19.5333 1.95 20.4C1.9 20.6833 1.81667 21.05 1.7 21.5C1.66667 21.8333 1.59167 22.1083 1.475 22.325C1.44167 22.375 1.4 22.4917 1.35 22.675C1.3 22.8583 1.25833 23.0083 1.225 23.125C1.175 23.2583 1.11667 23.475 1.05 23.775C1.03333 23.7917 1.01667 23.8333 1 23.9C0.983333 23.95 0.958333 23.9833 0.925 24C0.891667 24 0.841667 24 0.775 24H0.275ZM5.05 16.25C5.25 16.2167 5.53333 16.2 5.9 16.2L7.25 16.225C7.46667 16.225 7.575 16.1667 7.575 16.05C7.575 15.9667 7.51667 15.7833 7.4 15.5C7.3 15.25 7.15 14.7833 6.95 14.1C6.8 13.55 6.65 13.075 6.5 12.675C6.33333 12.175 6.15 11.5833 5.95 10.9C5.76667 10.2167 5.65833 9.775 5.625 9.575C5.375 8.69167 5.20833 8.25 5.125 8.25C5.075 8.25 4.99167 8.475 4.875 8.925L4.725 9.475C4.60833 9.925 4.45833 10.4917 4.275 11.175C4.09167 11.8417 3.925 12.4083 3.775 12.875C3.675 13.3083 3.53333 13.8583 3.35 14.525C3.18333 15.175 3.05 15.625 2.95 15.875C2.91667 15.975 2.9 16.0333 2.9 16.05C2.9 16.1667 2.95 16.2417 3.05 16.275C3.16667 16.3083 3.275 16.325 3.375 16.325C3.49167 16.3083 3.56667 16.3 3.6 16.3L5.05 16.25ZM14.1152 24C14.0152 24 13.9402 23.975 13.8902 23.925C13.8569 23.875 13.8402 23.7917 13.8402 23.675L13.8152 22.275C13.7319 19.025 13.6986 17.15 13.7152 16.65V9.4C13.7152 9.16667 13.8236 9.05 14.0402 9.05H14.4902L15.0402 9.075C15.1736 9.075 15.2402 9.21667 15.2402 9.5L15.2152 10.4L15.9652 10.025C16.6152 9.70833 17.1902 9.475 17.6902 9.325C18.2069 9.15833 18.8569 9.075 19.6402 9.075C20.4069 9.075 21.0402 9.2 21.5402 9.45C22.0569 9.68333 22.5319 10.1 22.9652 10.7C23.4319 11.2667 23.6652 12.5 23.6652 14.4L23.6902 18.75L23.6652 20.25C23.6319 21.3167 23.6152 22.1 23.6152 22.6C23.6152 23.0333 23.6236 23.2917 23.6402 23.375C23.6736 23.5417 23.6902 23.6333 23.6902 23.65C23.6902 23.75 23.6652 23.825 23.6152 23.875C23.5819 23.9083 23.5152 23.9333 23.4152 23.95C23.2819 23.9833 23.0652 24 22.7652 24C22.4819 24 22.3069 24 22.2402 24C22.1236 24 22.0486 23.9667 22.0152 23.9C21.9819 23.8333 21.9652 23.675 21.9652 23.425L22.0652 19.275L22.1152 16.95L22.1402 15.2C22.1402 13.6667 22.0319 12.6667 21.8152 12.2C21.5986 11.7667 21.3986 11.45 21.2152 11.25C21.0486 11.0333 20.8152 10.8833 20.5152 10.8C20.2319 10.7 19.8152 10.65 19.2652 10.65C18.5986 10.65 17.8986 10.7917 17.1652 11.075C16.4486 11.3583 15.8569 11.675 15.3902 12.025C15.3902 13.3417 15.3986 14.4917 15.4152 15.475V18.925C15.4486 19.7583 15.4736 20.6417 15.4902 21.575C15.5069 22.5083 15.5152 23.1833 15.5152 23.6C15.5152 23.7333 15.4736 23.8333 15.3902 23.9C15.3236 23.9667 15.1819 24 14.9652 24H14.1152ZM34.1395 24.075C34.0228 24.0583 33.9645 23.9917 33.9645 23.875V23.8L33.9895 23.375C33.9395 22.675 33.9145 21.575 33.9145 20.075C33.9145 19.5583 33.9228 19.1583 33.9395 18.875L33.9645 17.425L33.9895 15.925C33.9895 15.475 33.9728 15.1667 33.9395 15C33.8395 14.4 33.6311 13.9583 33.3145 13.675C33.0145 13.375 32.5811 13.225 32.0145 13.225C31.4478 13.225 30.9561 13.4 30.5395 13.75C30.5395 14.5333 30.5478 15.175 30.5645 15.675V19.05C30.6145 20.4 30.6395 21.4 30.6395 22.05C30.6395 22.9333 30.5978 23.5417 30.5145 23.875C30.5145 23.9917 30.3811 24.05 30.1145 24.05C30.0478 24.05 29.8728 24.0333 29.5895 24C29.3228 23.9667 29.0478 23.95 28.7645 23.95C28.4478 23.95 28.1645 23.9583 27.9145 23.975C27.6811 23.9917 27.4978 24 27.3645 24C27.1145 24 26.9895 23.9 26.9895 23.7C26.9895 23.6833 26.9895 23.65 26.9895 23.6C27.0061 23.5333 27.0145 23.4333 27.0145 23.3L26.9645 21.375C26.8978 18.775 26.8728 17.2583 26.8895 16.825C26.9061 16.7083 26.9145 16.425 26.9145 15.975L26.8895 13.9C26.8561 12.7333 26.8395 11.8583 26.8395 11.275C26.8395 10.7083 26.8478 10.3083 26.8645 10.075L26.8395 9.725C26.8395 9.54167 26.8811 9.44167 26.9645 9.425C27.0811 9.425 27.2561 9.43333 27.4895 9.45C27.7395 9.46667 28.0228 9.475 28.3395 9.475C28.8061 9.475 29.1478 9.46667 29.3645 9.45C29.4978 9.45 29.6311 9.45 29.7645 9.45C29.9145 9.43333 30.0395 9.43333 30.1395 9.45C30.1895 9.45 30.2311 9.48333 30.2645 9.55C30.3145 9.6 30.3395 9.64167 30.3395 9.675L30.3645 9.975C30.7811 9.70833 31.2728 9.49167 31.8395 9.325C32.4061 9.14167 32.9395 9.05 33.4395 9.05C34.2061 9.05 34.8228 9.15 35.2895 9.35C35.7728 9.55 36.2228 9.94167 36.6395 10.525C37.3728 11.425 37.7395 13.3083 37.7395 16.175C37.7395 16.8417 37.7228 17.6583 37.6895 18.625L37.6395 19.925C37.6395 20.0417 37.6395 20.35 37.6395 20.85C37.6561 21.35 37.6645 22.1833 37.6645 23.35C37.6645 23.4167 37.6728 23.4833 37.6895 23.55C37.7061 23.6167 37.7145 23.6917 37.7145 23.775C37.7145 23.8917 37.6311 23.9583 37.4645 23.975C37.2478 23.9917 36.6978 24 35.8145 24C35.5811 24 35.2645 24.0167 34.8645 24.05C34.4978 24.0833 34.2561 24.0917 34.1395 24.075ZM46.2387 24.275C43.8553 24.275 42.222 23.5583 41.3387 22.125C40.4553 20.6917 40.0137 18.7667 40.0137 16.35C40.0137 15.1 40.272 13.9167 40.7887 12.8C41.322 11.6667 42.0387 10.7583 42.9387 10.075C43.8553 9.39167 44.8637 9.05 45.9637 9.05C47.297 9.05 48.372 9.5 49.1887 10.4C50.0053 11.3 50.5803 12.4417 50.9137 13.825C51.2637 15.1917 51.4387 16.6333 51.4387 18.15C51.4553 18.2667 51.4137 18.3417 51.3137 18.375C51.2137 18.4083 51.0137 18.425 50.7137 18.425C50.1803 18.3917 49.747 18.375 49.4137 18.375C48.8637 18.375 48.1387 18.3917 47.2387 18.425L46.5887 18.45H45.7387C44.5553 18.45 43.7887 18.4417 43.4387 18.425C42.6387 18.425 42.0553 18.4167 41.6887 18.4C41.7887 19.9 42.197 21.0333 42.9137 21.8C43.647 22.55 44.722 22.925 46.1387 22.925C46.8887 22.925 47.6303 22.725 48.3637 22.325C49.097 21.9083 49.622 21.3917 49.9387 20.775C49.9553 20.7583 49.9803 20.75 50.0137 20.75C50.097 20.75 50.197 20.8083 50.3137 20.925C50.447 21.025 50.547 21.1 50.6137 21.15C50.797 21.2667 50.9303 21.3583 51.0137 21.425C51.097 21.4917 51.147 21.5833 51.1637 21.7C50.697 22.3833 50.0053 22.9833 49.0887 23.5C48.1887 24.0167 47.2387 24.275 46.2387 24.275ZM46.8887 16.875C47.3387 16.875 47.7803 16.8667 48.2137 16.85C48.6637 16.8167 49.2137 16.7667 49.8637 16.7C49.6803 15 49.2887 13.5333 48.6887 12.3C48.1053 11.0667 47.347 10.45 46.4137 10.45C45.6137 10.45 44.8637 10.7333 44.1637 11.3C43.4637 11.85 42.8887 12.6083 42.4387 13.575C41.9887 14.5417 41.7303 15.625 41.6637 16.825C41.7803 16.825 41.9387 16.8333 42.1387 16.85C42.3387 16.85 42.622 16.8417 42.9887 16.825L46.8887 16.875ZM59.6658 9.125C61.4158 9.125 62.6992 9.825 63.5158 11.225C64.3492 12.625 64.7658 14.4 64.7658 16.55C64.7658 17.4167 64.6492 18.4333 64.4158 19.6C64.1825 20.75 63.6908 21.8167 62.9408 22.8C62.1908 23.7833 61.0992 24.275 59.6658 24.275C58.4658 24.275 57.4408 23.9833 56.5908 23.4V23.575V23.725C56.5908 23.8417 56.5742 23.925 56.5408 23.975C56.5242 24.025 56.4658 24.05 56.3658 24.05C56.3658 24.0333 56.2992 24.0167 56.1658 24C56.0325 24 55.8658 24 55.6658 24C55.3825 24 55.1325 24.0083 54.9158 24.025C54.7158 24.0417 54.5825 24.05 54.5158 24.05H54.4158C54.3325 24.05 54.2658 24.0333 54.2158 24C54.1658 23.95 54.1408 23.8667 54.1408 23.75L54.1908 22.825L54.2408 21.775L54.2908 15.275C54.3075 15.0583 54.3158 14.7667 54.3158 14.4V13.05C54.3158 12.45 54.2742 11.3417 54.1908 9.725L54.0908 6.825C54.0908 6.49167 54.0908 6.25833 54.0908 6.125C54.1075 5.975 54.1158 5.875 54.1158 5.825C54.1158 5.725 54.1325 5.65 54.1658 5.6C54.2158 5.55 54.3075 5.525 54.4408 5.525L55.9658 5.5C56.0325 5.5 56.0992 5.49167 56.1658 5.475C56.2492 5.45833 56.3325 5.45 56.4158 5.45C56.5492 5.45 56.6158 5.50833 56.6158 5.625L56.6408 7.25L56.6658 9.9C57.5492 9.38333 58.5492 9.125 59.6658 9.125ZM59.5658 21.725C60.6158 21.725 61.4575 21.2833 62.0908 20.4C62.7242 19.5167 63.0408 18.2333 63.0408 16.55C63.0408 15.05 62.7158 13.9833 62.0658 13.35C61.4325 12.7 60.6825 12.375 59.8158 12.375C59.2325 12.375 58.6492 12.5 58.0658 12.75C57.4992 13 57.0325 13.35 56.6658 13.8V13.9C56.6658 14.6167 56.6575 15.1417 56.6408 15.475C56.6242 15.775 56.6158 16.1417 56.6158 16.575V19.875C56.9158 20.4417 57.3075 20.8917 57.7908 21.225C58.2908 21.5583 58.8825 21.725 59.5658 21.725ZM72.6465 24.55C70.1465 24.55 68.4798 23.7083 67.6465 22.025C66.8132 20.325 66.3965 18.5083 66.3965 16.575C66.3965 14.7083 66.6798 13.2167 67.2465 12.1C67.8132 10.9667 68.4965 10.175 69.2965 9.725C70.1132 9.275 70.9298 9.05 71.7465 9.05C73.2798 9.05 74.4298 9.49167 75.1965 10.375C75.9798 11.2583 76.4798 12.2917 76.6965 13.475C76.9298 14.6417 77.0465 15.9083 77.0465 17.275C77.0465 17.3917 76.9632 17.4667 76.7965 17.5C76.2465 17.5 74.9798 17.5917 72.9965 17.775C72.6798 17.8083 72.2965 17.85 71.8465 17.9C71.3965 17.9333 70.8965 17.9667 70.3465 18C70.4965 19.6167 71.3715 20.425 72.9715 20.425C73.5048 20.425 73.9132 20.375 74.1965 20.275C74.4965 20.175 74.9715 19.9667 75.6215 19.65C75.7382 19.65 75.8382 19.7167 75.9215 19.85C76.0215 19.9833 76.1548 20.2583 76.3215 20.675C76.3715 20.7583 76.4298 20.9167 76.4965 21.15C76.5798 21.3833 76.6548 21.5583 76.7215 21.675C77.0382 22.475 77.1882 22.8917 77.1715 22.925C77.1382 22.9917 77.0465 23.0833 76.8965 23.2C76.5465 23.55 75.9798 23.8583 75.1965 24.125C74.4298 24.4083 73.5798 24.55 72.6465 24.55ZM73.2465 16.3C73.1132 14.4 72.6548 13.45 71.8715 13.45C71.4048 13.45 71.0465 13.725 70.7965 14.275C70.5465 14.8083 70.3965 15.5667 70.3465 16.55L73.2465 16.3ZM82.307 24.1C81.507 24.1 80.907 24.0083 80.507 23.825C80.1237 23.625 79.8654 23.35 79.732 23C79.6154 22.6333 79.557 22.15 79.557 21.55L79.582 19.95C79.5987 19.6667 79.607 19.1917 79.607 18.525L79.582 15.6C79.5654 15.35 79.557 15.0833 79.557 14.8C79.5404 14.4833 79.532 14.1333 79.532 13.75C79.5487 13.35 79.557 12.9833 79.557 12.65V11.3V10.525H78.607C78.5237 10.525 78.4654 10.5083 78.432 10.475C78.3987 10.4417 78.382 10.4167 78.382 10.4C78.3654 10.2667 78.357 10.1083 78.357 9.925C78.357 9.79167 78.3737 9.64167 78.407 9.475H79.557L79.582 9.3L79.607 8.35V7.275C79.5904 6.875 79.6154 6.60833 79.682 6.475C79.7654 6.325 79.882 6.25 80.032 6.25C80.1154 6.25 80.182 6.25833 80.232 6.275C80.3654 6.29167 80.507 6.3 80.657 6.3C80.8237 6.28333 80.9737 6.275 81.107 6.275H81.732C82.1654 6.275 82.4654 6.28333 82.632 6.3C82.8154 6.31667 82.9404 6.35833 83.007 6.425C83.0904 6.49167 83.132 6.59167 83.132 6.725C83.132 6.775 83.1154 6.96667 83.082 7.3C83.0654 7.4 83.032 7.63333 82.982 8C82.9487 8.35 82.9154 8.825 82.882 9.425L84.782 9.45H84.907C85.1404 9.45 85.2654 9.5 85.282 9.6L85.332 10.075C85.3487 10.1917 85.357 10.225 85.357 10.175C85.3737 10.125 85.382 10.1417 85.382 10.225C85.382 10.2917 85.357 10.35 85.307 10.4C85.2737 10.45 85.232 10.475 85.182 10.475L84.607 10.5C84.057 10.55 83.482 10.575 82.882 10.575V10.675V11.45V13.1C82.8987 13.5167 82.907 14.1 82.907 14.85L82.882 17.05L82.932 18.05C82.982 19.25 83.007 19.8583 83.007 19.875V20.375C83.007 20.7083 83.0487 20.95 83.132 21.1C83.232 21.2333 83.3737 21.3 83.557 21.3C83.9737 21.3 84.2654 21.2917 84.432 21.275C84.5987 21.2417 84.7404 21.225 84.857 21.225C84.9237 21.225 84.982 21.3 85.032 21.45C85.082 21.6 85.1154 21.7167 85.132 21.8L85.332 22.525C85.3987 22.775 85.482 22.9833 85.582 23.15C85.5987 23.1667 85.607 23.1917 85.607 23.225C85.607 23.2917 85.5654 23.3667 85.482 23.45C85.032 23.7333 84.582 23.9167 84.132 24C83.682 24.0667 83.0737 24.1 82.307 24.1ZM90.1055 24C89.5388 23.9833 88.9388 23.975 88.3055 23.975C87.8221 23.975 87.5805 23.7333 87.5805 23.25L87.6055 18.275V17.25C87.5888 16.9667 87.5805 16.6167 87.5805 16.2C87.5805 15.7667 87.6055 15.0917 87.6555 14.175C87.7055 13.5583 87.7471 12.3167 87.7805 10.45C87.8138 8.58333 87.8305 7.29167 87.8305 6.575C87.8305 6.14167 87.8721 5.825 87.9555 5.625C88.0388 5.425 88.1805 5.33333 88.3805 5.35C88.5971 5.36667 88.8888 5.375 89.2555 5.375C89.6721 5.375 89.9638 5.35833 90.1305 5.325C90.3471 5.275 90.4971 5.36667 90.5805 5.6C90.6638 5.81667 90.7055 6.06667 90.7055 6.35L90.6805 9.375L91.1805 9.15C91.6305 8.93333 92.0638 8.76667 92.4805 8.65C92.9138 8.53333 93.5055 8.475 94.2555 8.475C95.3055 8.475 96.1221 8.69167 96.7055 9.125C97.2888 9.55833 97.7138 10.3417 97.9805 11.475C98.2638 12.6083 98.4055 14.2583 98.4055 16.425C98.4055 19.225 98.3971 20.8167 98.3805 21.2L98.4055 23.45C98.4055 23.6167 98.3805 23.75 98.3305 23.85C98.2805 23.95 98.2138 24 98.1305 24H95.8055C95.6555 24 95.5638 23.95 95.5305 23.85C95.4971 23.7333 95.4805 23.5583 95.4805 23.325C95.4805 23.2083 95.4888 23.0333 95.5055 22.8C95.5221 22.5667 95.5305 22.2833 95.5305 21.95C95.5305 21.7333 95.5138 21.5083 95.4805 21.275C95.4638 21.1917 95.4721 20.5083 95.5055 19.225C95.5555 16.925 95.5805 15.65 95.5805 15.4C95.5805 14.2667 95.5221 13.3917 95.4055 12.775C95.3055 12.1417 95.0888 11.675 94.7555 11.375C94.4388 11.075 93.9555 10.925 93.3055 10.925C92.2555 10.925 91.3805 11.2417 90.6805 11.875C90.5971 13.875 90.5555 15.825 90.5555 17.725C90.5555 18.625 90.5805 20.025 90.6305 21.925L90.6555 23.15C90.6555 23.4167 90.6221 23.625 90.5555 23.775C90.4888 23.925 90.3388 24 90.1055 24ZM111.649 23.95C111.565 23.95 111.374 23.9333 111.074 23.9C110.924 23.8833 110.615 23.875 110.149 23.875L108.324 23.9C108.14 23.8833 108.024 23.85 107.974 23.8C107.94 23.75 107.924 23.6833 107.924 23.6C107.924 23.5 107.924 23.4333 107.924 23.4L107.899 22.075C107.899 21.8417 107.89 21.6417 107.874 21.475L107.849 19.775C107.849 19.525 107.857 19.275 107.874 19.025C107.907 18.7583 107.924 18.5667 107.924 18.45C107.974 18.0667 107.999 17.6333 107.999 17.15L107.974 14.3L107.999 12.65C108.032 11.8833 108.049 11.3 108.049 10.9C108.049 9.96667 108.032 8.81667 107.999 7.45C107.999 7.15 108.032 6.95 108.099 6.85C108.182 6.75 108.299 6.7 108.449 6.7C108.549 6.7 108.649 6.70833 108.749 6.725C108.865 6.74167 108.999 6.75 109.149 6.75L111.049 6.7L112.649 6.65C112.849 6.65 113.074 6.64167 113.324 6.625C113.574 6.60833 113.824 6.59167 114.074 6.575C114.64 6.525 115.107 6.5 115.474 6.5L117.574 6.525C117.957 6.525 118.149 6.65 118.149 6.9V8.15C118.149 8.3 118.115 8.39167 118.049 8.425C117.999 8.44167 117.882 8.45 117.699 8.45C117.482 8.45 117.29 8.44167 117.124 8.425L115.524 8.4C114.89 8.4 114.274 8.43333 113.674 8.5L112.449 8.575L112.374 9.025C112.34 9.39167 112.324 9.68333 112.324 9.9L112.299 12.125L112.274 13.4V14C112.624 14 112.882 13.9917 113.049 13.975L114.249 13.95L115.249 13.925C115.482 13.9083 115.807 13.9 116.224 13.9C116.49 13.9 116.665 13.9333 116.749 14C116.849 14.0667 116.899 14.175 116.899 14.325L116.874 15.15C116.874 15.2833 116.832 15.375 116.749 15.425C116.682 15.475 116.532 15.5 116.299 15.5C115.999 15.5 115.749 15.4917 115.549 15.475L114.549 15.45H112.224C112.224 15.8833 112.232 16.2 112.249 16.4L112.274 17.975L112.249 19.2C112.215 19.7333 112.199 20.1417 112.199 20.425L112.224 23.375C112.224 23.5917 112.174 23.7417 112.074 23.825C111.99 23.9083 111.849 23.95 111.649 23.95ZM122.402 24.275C121.185 24.275 120.21 24.0333 119.477 23.55C118.744 23.0667 118.377 22.2083 118.377 20.975C118.46 20.175 119.052 19.5833 120.152 19.2C121.252 18.8167 122.485 18.625 123.852 18.625C124.285 18.625 124.802 18.5917 125.402 18.525C126.002 18.4583 126.552 18.425 127.052 18.425C126.985 16.625 126.869 15.2167 126.702 14.2C126.552 13.1667 126.285 12.3917 125.902 11.875C125.535 11.3583 125.01 11.1 124.327 11.1C123.827 11.1 123.352 11.2167 122.902 11.45C122.452 11.6833 121.894 12.05 121.227 12.55C120.677 12.95 120.402 13.15 120.402 13.15C120.385 13.15 120.327 13.1833 120.227 13.25C120.144 13.3 120.06 13.3167 119.977 13.3C119.827 13.2667 119.752 13.1917 119.752 13.075C119.685 12.975 119.602 12.75 119.502 12.4C119.419 12.05 119.377 11.8 119.377 11.65C119.377 11.55 119.477 11.4333 119.677 11.3C120.527 10.6667 121.244 10.2 121.827 9.9C122.427 9.58333 122.935 9.38333 123.352 9.3C123.785 9.21667 124.285 9.175 124.852 9.175C126.519 9.175 127.635 9.71667 128.202 10.8C128.785 11.8667 129.077 13.2917 129.077 15.075C129.077 15.5417 129.06 16.175 129.027 16.975C129.027 17.4583 128.994 18.1667 128.927 19.1L128.902 19.7L128.927 21.175C128.96 21.8417 128.977 22.35 128.977 22.7L128.952 23.45C128.919 23.8333 128.769 24.025 128.502 24.025L128.302 24H127.277C127.21 24 127.144 23.975 127.077 23.925C127.027 23.8583 127.002 23.7833 127.002 23.7V23.5C126.002 23.7833 125.202 23.9833 124.602 24.1C124.002 24.2167 123.269 24.275 122.402 24.275ZM122.427 22.85C124.21 22.85 125.735 22.55 127.002 21.95L127.077 19.625C126.294 19.5583 125.619 19.525 125.052 19.525L123.577 19.55C122.777 19.55 122.06 19.7083 121.427 20.025C120.794 20.325 120.452 20.75 120.402 21.3C120.402 21.9 120.544 22.3083 120.827 22.525C121.11 22.7417 121.644 22.85 122.427 22.85ZM136.734 24.4C135.817 24.4 135.017 24.1 134.334 23.5C133.667 22.9 133.15 22.0583 132.784 20.975C132.434 19.8917 132.259 18.6417 132.259 17.225C132.259 16.8917 132.284 15.95 132.334 14.4C132.367 13.9667 132.384 13.675 132.384 13.525L132.359 13.025C132.359 12.7083 132.35 12.2833 132.334 11.75C132.317 11.2 132.309 10.5083 132.309 9.675C132.309 9.55833 132.392 9.49167 132.559 9.475C132.975 9.44167 133.484 9.41667 134.084 9.4C134.7 9.38333 135.259 9.375 135.759 9.375C135.892 9.375 135.975 9.4 136.009 9.45C136.042 9.48333 136.059 9.55 136.059 9.65L136.034 10.075L136.059 10.6C136.059 11.0333 136.034 11.4833 135.984 11.95C135.934 12.4 135.909 12.6833 135.909 12.8C135.909 13.2 135.934 13.6917 135.984 14.275C136 14.5083 136.017 14.775 136.034 15.075C136.05 15.375 136.059 15.6917 136.059 16.025L136.034 17.875C136.034 18.9083 136.159 19.65 136.409 20.1C136.659 20.5333 137.134 20.75 137.834 20.75C138.05 20.75 138.309 20.7 138.609 20.6C138.925 20.4833 139.2 20.3417 139.434 20.175C139.45 19.425 139.459 18.625 139.459 17.775C139.459 17.375 139.467 17.0083 139.484 16.675C139.5 16.3417 139.517 16.05 139.534 15.8C139.584 15.1 139.609 14.4417 139.609 13.825C139.609 13.575 139.575 13.1 139.509 12.4C139.442 11.6 139.409 11 139.409 10.6C139.409 10.5333 139.4 10.3833 139.384 10.15C139.384 9.9 139.425 9.71667 139.509 9.6C139.592 9.46667 139.725 9.4 139.909 9.4C139.975 9.4 140.142 9.41667 140.409 9.45C140.692 9.48333 140.975 9.5 141.259 9.5C141.575 9.5 141.85 9.49167 142.084 9.475C142.334 9.45833 142.525 9.45 142.659 9.45C142.909 9.45 143.034 9.55 143.034 9.75C143.034 9.76667 143.025 9.80833 143.009 9.875C143.009 9.925 143.009 10.0167 143.009 10.15L143.034 11.725C143.1 13.8583 143.134 15.4 143.134 16.35L143.109 17.475L143.134 19.55C143.167 20.7167 143.184 21.5833 143.184 22.15C143.184 22.7333 143.175 23.1417 143.159 23.375L143.184 23.725C143.184 23.925 143.117 24.025 142.984 24.025C142.867 24.025 142.7 24.0167 142.484 24C142.267 23.9833 142 23.975 141.684 23.975L140.584 24C140.434 24.0167 140.259 24.025 140.059 24.025C139.975 24.025 139.9 24.0083 139.834 23.975C139.784 23.925 139.759 23.8667 139.759 23.8L139.659 23.55C139.292 23.8333 138.9 24.0417 138.484 24.175C138.067 24.325 137.484 24.4 136.734 24.4ZM146.605 24C146.355 24 146.23 23.9 146.23 23.7V18.925V16.825L146.405 9.725C146.405 9.54167 146.447 9.44167 146.53 9.425C146.597 9.39167 146.788 9.375 147.105 9.375C147.738 9.375 148.088 9.39167 148.155 9.425C148.205 9.425 148.247 9.45833 148.28 9.525C148.33 9.575 148.355 9.61667 148.355 9.65L148.33 10.525L149.43 10.075C151.08 9.35833 152.03 9 152.28 9H152.305C152.422 9 152.513 9.15 152.58 9.45C152.58 9.81667 152.588 10.1 152.605 10.3C152.605 10.4833 152.622 10.6583 152.655 10.825L152.68 11.375V11.425C152.68 11.4917 152.655 11.5583 152.605 11.625C152.555 11.6917 152.513 11.7333 152.48 11.75C151.947 11.8833 151.372 11.9917 150.755 12.075C150.155 12.1417 149.805 12.1833 149.705 12.2L148.28 12.4V15.925V17.025L148.33 18.325C148.33 18.8083 148.322 19.2167 148.305 19.55C148.255 20.1 148.23 20.7333 148.23 21.45V22.3C148.23 23.1333 148.197 23.65 148.13 23.85C148.13 23.9667 147.997 24.025 147.73 24.025L146.605 24ZM160.032 9.125C161.782 9.125 163.065 9.825 163.882 11.225C164.715 12.625 165.132 14.4 165.132 16.55C165.132 17.4167 165.015 18.4333 164.782 19.6C164.549 20.75 164.057 21.8167 163.307 22.8C162.557 23.7833 161.465 24.275 160.032 24.275C158.832 24.275 157.807 23.9833 156.957 23.4V23.575V23.725C156.957 23.8417 156.94 23.925 156.907 23.975C156.89 24.025 156.832 24.05 156.732 24.05C156.732 24.0333 156.665 24.0167 156.532 24C156.399 24 156.232 24 156.032 24C155.749 24 155.499 24.0083 155.282 24.025C155.082 24.0417 154.949 24.05 154.882 24.05H154.782C154.699 24.05 154.632 24.0333 154.582 24C154.532 23.95 154.507 23.8667 154.507 23.75L154.557 22.825L154.607 21.775L154.657 15.275C154.674 15.0583 154.682 14.7667 154.682 14.4V13.05C154.682 12.45 154.64 11.3417 154.557 9.725L154.457 6.825C154.457 6.49167 154.457 6.25833 154.457 6.125C154.474 5.975 154.482 5.875 154.482 5.825C154.482 5.725 154.499 5.65 154.532 5.6C154.582 5.55 154.674 5.525 154.807 5.525L156.332 5.5C156.399 5.5 156.465 5.49167 156.532 5.475C156.615 5.45833 156.699 5.45 156.782 5.45C156.915 5.45 156.982 5.50833 156.982 5.625L157.007 7.25L157.032 9.9C157.915 9.38333 158.915 9.125 160.032 9.125ZM159.932 21.725C160.982 21.725 161.824 21.2833 162.457 20.4C163.09 19.5167 163.407 18.2333 163.407 16.55C163.407 15.05 163.082 13.9833 162.432 13.35C161.799 12.7 161.049 12.375 160.182 12.375C159.599 12.375 159.015 12.5 158.432 12.75C157.865 13 157.399 13.35 157.032 13.8V13.9C157.032 14.6167 157.024 15.1417 157.007 15.475C156.99 15.775 156.982 16.1417 156.982 16.575V19.875C157.282 20.4417 157.674 20.8917 158.157 21.225C158.657 21.5583 159.249 21.725 159.932 21.725ZM168.613 28C168.596 27.9833 168.579 27.95 168.563 27.9C168.546 27.8667 168.538 27.8167 168.538 27.75C168.538 27.4167 168.629 27.0583 168.813 26.675C168.996 26.3083 169.296 25.7667 169.713 25.05C169.946 24.6833 170.171 24.3083 170.388 23.925C170.621 23.525 170.796 23.1583 170.913 22.825C170.513 21.6417 170.263 20.9333 170.163 20.7L168.938 16.65C168.821 16.3167 168.704 15.9583 168.588 15.575C168.488 15.175 168.396 14.825 168.313 14.525L167.763 12.675C167.663 12.4917 167.513 12.0083 167.313 11.225C167.079 10.4583 166.954 10.05 166.938 10C166.888 9.81667 166.863 9.68333 166.863 9.6C166.863 9.55 166.871 9.51667 166.888 9.5C166.921 9.48333 166.954 9.475 166.988 9.475C167.021 9.45833 167.054 9.45 167.088 9.45H168.838C168.988 9.45 169.088 9.475 169.138 9.525C169.188 9.575 169.213 9.63333 169.213 9.7C169.229 9.75 169.246 9.79167 169.263 9.825C169.346 9.975 169.488 10.4833 169.688 11.35C169.821 11.8333 170.071 12.6417 170.438 13.775C170.804 14.9083 171.121 15.8583 171.388 16.625C171.604 17.1917 171.721 17.5167 171.738 17.6C171.838 17.9 171.938 18.175 172.038 18.425L172.313 19.25C172.513 18.7167 172.771 17.9667 173.088 17C173.404 16.0333 173.613 15.3417 173.713 14.925L174.338 13.325C174.788 12.175 175.029 11.55 175.063 11.45C175.129 11.3333 175.279 10.9333 175.513 10.25L175.763 9.575C175.796 9.44167 175.838 9.36667 175.888 9.35C175.938 9.33333 176.021 9.34167 176.138 9.375C176.204 9.40833 176.371 9.425 176.638 9.425C176.904 9.425 177.054 9.425 177.088 9.425C177.171 9.425 177.213 9.44167 177.213 9.475C177.213 9.50833 177.204 9.55 177.188 9.6C177.171 9.63333 177.154 9.66667 177.138 9.7C177.088 9.8 176.979 10.0583 176.813 10.475C176.646 10.875 176.488 11.2 176.338 11.45C176.104 11.8 175.529 13.3583 174.613 16.125L174.238 17.175C173.704 18.8417 173.396 19.7917 173.313 20.025L172.988 21.075L172.713 21.925C172.279 23.2917 171.904 24.4167 171.588 25.3C171.271 26.2 170.938 27.0333 170.588 27.8C170.504 27.9667 170.079 28.05 169.313 28.05C169.013 28.05 168.779 28.0333 168.613 28ZM185.455 23.975C185.138 23.975 184.98 23.8833 184.98 23.7C184.98 23.5833 185.021 23.4667 185.105 23.35C185.188 23.2167 185.271 23.1 185.355 23C185.455 22.8833 185.53 22.8 185.58 22.75C185.663 22.65 186.238 21.9667 187.305 20.7C188.388 19.4333 189.23 18.4083 189.83 17.625L190.43 16.875C191.13 15.9917 191.713 15.2083 192.18 14.525C192.663 13.825 193.105 13.0333 193.505 12.15C193.688 11.75 193.78 11.2833 193.78 10.75C193.78 9.95 193.496 9.35 192.93 8.95C192.38 8.55 191.763 8.35 191.08 8.35C190.43 8.35 189.888 8.40833 189.455 8.525C189.038 8.625 188.571 8.78333 188.055 9C187.771 9.13333 187.43 9.35 187.03 9.65C186.646 9.95 186.413 10.125 186.33 10.175L186.205 10.225C186.171 10.225 186.13 10.2083 186.08 10.175C186.046 10.125 186.013 10.0917 185.98 10.075C185.913 10.0083 185.838 9.95833 185.755 9.925C185.671 9.875 185.605 9.825 185.555 9.775C185.505 9.70833 185.471 9.65833 185.455 9.625C185.455 9.59167 185.48 9.53333 185.53 9.45C185.83 9.03333 186.238 8.56667 186.755 8.05C186.955 7.85 187.321 7.58333 187.855 7.25C188.405 6.91667 188.971 6.625 189.555 6.375C190.155 6.125 190.663 6 191.08 6C191.846 6 192.53 6.18333 193.13 6.55C193.73 6.91667 194.188 7.4 194.505 8C194.838 8.58333 195.005 9.2 195.005 9.85C195.005 10.5667 194.88 11.2167 194.63 11.8C194.38 12.3833 194.021 13.0333 193.555 13.75C193.521 13.8 193.388 14.0083 193.155 14.375C192.855 14.875 192.163 15.825 191.08 17.225C189.996 18.625 189.388 19.3917 189.255 19.525C189.171 19.6083 189.096 19.6917 189.03 19.775C188.963 19.8583 188.971 19.9 189.055 19.9C189.105 19.9 189.221 19.9083 189.405 19.925C189.605 19.925 189.946 19.925 190.43 19.925C190.813 19.925 191.105 19.9167 191.305 19.9C192.988 19.9 194.255 19.8667 195.105 19.8C195.471 19.7667 195.696 19.8083 195.78 19.925C195.863 20.025 195.896 20.15 195.88 20.3C195.88 20.4333 195.88 20.525 195.88 20.575V23.225C195.88 23.5417 195.813 23.7417 195.68 23.825C195.546 23.8917 195.288 23.925 194.905 23.925C194.555 23.925 194.246 23.9333 193.98 23.95L192.055 23.975C191.571 23.975 191.255 23.9667 191.105 23.95L187.155 23.925C186.338 23.925 185.888 23.9333 185.805 23.95C185.738 23.9667 185.621 23.975 185.455 23.975ZM202.88 23.9C201.33 23.8167 200.346 23.6667 199.93 23.45C199.513 23.2333 199.071 22.7 198.605 21.85C198.155 21.0167 197.838 20.225 197.655 19.475C197.505 18.7417 197.43 17.1333 197.43 14.65C197.43 13.2 197.505 11.9333 197.655 10.85C197.805 9.76667 198.088 8.88333 198.505 8.2C198.988 7.45 199.596 6.9 200.33 6.55C201.096 6.18333 202.188 5.99167 203.605 5.975C205.438 6.24167 206.646 6.89167 207.23 7.925C207.813 8.95833 208.155 10.0667 208.255 11.25C208.355 12.4167 208.405 13.775 208.405 15.325C208.405 16.925 208.296 18.35 208.08 19.6C207.88 20.9167 207.321 21.9667 206.405 22.75C205.505 23.5167 204.33 23.9 202.88 23.9ZM203.68 22.3C204.163 22.3 204.688 22.1167 205.255 21.75C205.821 21.3833 206.296 20.875 206.68 20.225C207.096 19.5417 207.338 18.75 207.405 17.85C207.438 17.5167 207.455 17.075 207.455 16.525V16C207.455 15.9 207.446 15.7917 207.43 15.675C207.43 15.5417 207.438 15.4083 207.455 15.275C207.488 14.6417 207.505 13.8083 207.505 12.775C207.505 12.2417 207.471 11.7667 207.405 11.35C207.355 10.9167 207.321 10.6583 207.305 10.575C207.205 9.825 206.938 9.06667 206.505 8.3C206.355 8.05 206.155 7.85 205.905 7.7C205.655 7.55 205.38 7.45833 205.08 7.425C204.713 7.39167 204.43 7.375 204.23 7.375C204.063 7.375 203.78 7.39167 203.38 7.425C202.796 7.425 202.238 7.6 201.705 7.95C201.488 8.1 201.305 8.28333 201.155 8.5C201.021 8.7 200.855 9.00833 200.655 9.425C200.355 10.025 200.205 10.675 200.205 11.375C200.205 11.8583 200.213 12.2583 200.23 12.575L200.255 14.725L200.305 17.15C200.338 17.9833 200.388 18.6083 200.455 19.025C200.521 19.4417 200.663 19.7833 200.88 20.05C201.146 20.35 201.388 20.6833 201.605 21.05L201.98 21.6C202.33 22.0667 202.896 22.3 203.68 22.3ZM203.705 16.3C203.371 16.3 203.08 16.175 202.83 15.925C202.596 15.675 202.48 15.3167 202.48 14.85C202.48 14.35 202.588 14.0167 202.805 13.85C203.038 13.6833 203.338 13.6 203.705 13.6C204.555 13.6 204.98 14.1417 204.98 15.225C204.98 15.525 204.846 15.7833 204.58 16C204.313 16.2 204.021 16.3 203.705 16.3ZM210.455 23.975C210.138 23.975 209.98 23.8833 209.98 23.7C209.98 23.5833 210.021 23.4667 210.105 23.35C210.188 23.2167 210.271 23.1 210.355 23C210.455 22.8833 210.53 22.8 210.58 22.75C210.663 22.65 211.238 21.9667 212.305 20.7C213.388 19.4333 214.23 18.4083 214.83 17.625L215.43 16.875C216.13 15.9917 216.713 15.2083 217.18 14.525C217.663 13.825 218.105 13.0333 218.505 12.15C218.688 11.75 218.78 11.2833 218.78 10.75C218.78 9.95 218.496 9.35 217.93 8.95C217.38 8.55 216.763 8.35 216.08 8.35C215.43 8.35 214.888 8.40833 214.455 8.525C214.038 8.625 213.571 8.78333 213.055 9C212.771 9.13333 212.43 9.35 212.03 9.65C211.646 9.95 211.413 10.125 211.33 10.175L211.205 10.225C211.171 10.225 211.13 10.2083 211.08 10.175C211.046 10.125 211.013 10.0917 210.98 10.075C210.913 10.0083 210.838 9.95833 210.755 9.925C210.671 9.875 210.605 9.825 210.555 9.775C210.505 9.70833 210.471 9.65833 210.455 9.625C210.455 9.59167 210.48 9.53333 210.53 9.45C210.83 9.03333 211.238 8.56667 211.755 8.05C211.955 7.85 212.321 7.58333 212.855 7.25C213.405 6.91667 213.971 6.625 214.555 6.375C215.155 6.125 215.663 6 216.08 6C216.846 6 217.53 6.18333 218.13 6.55C218.73 6.91667 219.188 7.4 219.505 8C219.838 8.58333 220.005 9.2 220.005 9.85C220.005 10.5667 219.88 11.2167 219.63 11.8C219.38 12.3833 219.021 13.0333 218.555 13.75C218.521 13.8 218.388 14.0083 218.155 14.375C217.855 14.875 217.163 15.825 216.08 17.225C214.996 18.625 214.388 19.3917 214.255 19.525C214.171 19.6083 214.096 19.6917 214.03 19.775C213.963 19.8583 213.971 19.9 214.055 19.9C214.105 19.9 214.221 19.9083 214.405 19.925C214.605 19.925 214.946 19.925 215.43 19.925C215.813 19.925 216.105 19.9167 216.305 19.9C217.988 19.9 219.255 19.8667 220.105 19.8C220.471 19.7667 220.696 19.8083 220.78 19.925C220.863 20.025 220.896 20.15 220.88 20.3C220.88 20.4333 220.88 20.525 220.88 20.575V23.225C220.88 23.5417 220.813 23.7417 220.68 23.825C220.546 23.8917 220.288 23.925 219.905 23.925C219.555 23.925 219.246 23.9333 218.98 23.95L217.055 23.975C216.571 23.975 216.255 23.9667 216.105 23.95L212.155 23.925C211.338 23.925 210.888 23.9333 210.805 23.95C210.738 23.9667 210.621 23.975 210.455 23.975ZM227.905 25C225.688 25 224.263 24.3917 223.63 23.175C223.013 21.9417 222.705 20.9 222.705 20.05C222.705 19.2 222.696 18.7167 222.68 18.6C222.646 18.4333 222.63 18.2167 222.63 17.95C222.63 17.4833 222.738 17.25 222.955 17.25L224.605 17.225C224.838 17.225 224.98 17.2667 225.03 17.35C225.08 17.4333 225.105 17.5917 225.105 17.825C225.105 18.025 225.113 18.1833 225.13 18.3C225.18 18.6833 225.405 19.0167 225.805 19.3C226.205 19.5667 226.755 19.7 227.455 19.7C227.805 19.7 228.138 19.625 228.455 19.475C228.788 19.3083 229.146 19.0667 229.53 18.75C229.88 18.4333 230.096 18.1417 230.18 17.875C230.263 17.6083 230.305 17.1833 230.305 16.6C230.171 15.5333 229.638 14.9667 228.705 14.9C227.955 14.95 227.38 15.0417 226.98 15.175C226.58 15.3083 226.23 15.5 225.93 15.75C225.613 16.0167 225.363 16.1417 225.18 16.125L222.88 16.1C222.713 16.1 222.63 15.825 222.63 15.275C222.63 15.1583 222.646 14.9167 222.68 14.55C222.73 14.1 222.755 13.85 222.755 13.8C222.788 13.4 222.755 12.1083 222.655 9.925C222.638 9.44167 222.621 8.95833 222.605 8.475C222.588 7.99167 222.58 7.55 222.58 7.15C222.58 6.71667 222.68 6.425 222.88 6.275C223.096 6.10833 223.38 6.025 223.73 6.025C223.88 6.025 224.013 6.03333 224.13 6.05C224.263 6.06667 224.388 6.075 224.505 6.075C224.905 6.075 225.538 6.05833 226.405 6.025C227.005 5.99167 227.43 5.975 227.68 5.975C227.88 5.95833 228.263 5.95 228.83 5.95L231.005 5.975C231.371 5.99167 231.838 6 232.405 6C232.738 6 232.963 6.05 233.08 6.15C233.196 6.25 233.255 6.39167 233.255 6.575L233.23 7L233.18 8.15L233.13 9.425C233.13 9.775 232.88 9.95 232.38 9.95C232.23 9.95 231.988 9.93333 231.655 9.9C231.555 9.88333 231.313 9.875 230.93 9.875C230.346 9.875 229.388 9.89167 228.055 9.925L226.23 9.975C225.763 9.975 225.455 10.0583 225.305 10.225C225.155 10.375 225.08 10.6 225.08 10.9L225.03 12.525C225.03 12.925 225.021 13.1833 225.005 13.3V14.325C225.438 13.925 225.796 13.6583 226.08 13.525C226.963 13.075 227.93 12.825 228.98 12.775C230.246 12.8417 231.246 13.1667 231.98 13.75C232.73 14.3333 233.205 15.1333 233.405 16.15C233.505 16.9833 233.538 17.5833 233.505 17.95C233.488 18.2333 233.438 18.5667 233.355 18.95C233.338 19.0667 233.23 19.6833 233.03 20.8C232.83 21.9167 232.28 22.9 231.38 23.75C230.48 24.5833 229.321 25 227.905 25Z" fill="#04389E"/>
</svg>
