<svg width="56" height="41" viewBox="0 0 56 41" fill="none" xmlns="http://www.w3.org/2000/svg">
<path d="M0.0936894 5.69158C0.0520569 5.20892 0.0863675 4.90205 0.196624 4.77098C0.246549 4.64511 0.422343 4.56916 0.724006 4.54314C0.905003 4.52753 1.1765 4.50411 1.5385 4.47289C1.96603 4.49679 2.51162 4.48012 3.17528 4.42288L13.0474 3.66251L28.8098 2.48525C30.4992 2.33954 34.1295 2.14796 39.7009 1.91052C45.936 1.61583 49.3526 1.4123 49.9507 1.29992L51.4814 1.07672C52.145 1.01948 52.6355 1.06834 52.9528 1.22332C53.3304 1.37309 53.54 1.68931 53.5816 2.17197L53.819 5.98073C53.8658 6.52372 53.5574 6.82384 52.8938 6.88108C52.5921 6.9071 52.2878 6.90296 51.981 6.86864C51.6741 6.83433 51.3698 6.83019 51.0682 6.85621C49.7908 6.84483 47.0051 6.96355 42.7111 7.21237C41.3234 7.33206 37.7836 7.51584 32.0915 7.76369C30.216 7.86468 28.3706 7.96307 26.5554 8.05886C24.8006 8.14945 23.2595 8.25198 21.9322 8.36647C19.0362 8.61627 15.3586 8.96388 10.8992 9.40932C6.50529 9.90988 3.89124 10.2569 3.05699 10.4504C2.82086 10.5316 2.49164 10.5904 2.06931 10.6268C1.64698 10.6632 1.37028 10.6263 1.23921 10.5161C1.05301 10.4713 0.914124 10.2706 0.822567 9.9138C0.539605 9.45195 0.35129 8.67804 0.257617 7.59205C0.169148 6.5664 0.114506 5.93291 0.0936894 5.69158Z" fill="#1E5FD6"/>
<path d="M2.40174 19.0541C2.40474 18.5696 2.46717 18.2672 2.58903 18.1469C2.65034 18.0261 2.83238 17.9667 3.13516 17.9686C3.31683 17.9697 3.58933 17.9714 3.95266 17.9737C4.37617 18.0368 4.92098 18.0705 5.58709 18.0746L15.4873 18.2268L31.2912 18.5065C32.9867 18.517 36.6193 18.6606 42.1889 18.9373C48.4246 19.2182 51.8454 19.3303 52.4513 19.2735L53.996 19.1922C54.6622 19.1963 55.146 19.2902 55.4477 19.4737C55.8099 19.6576 55.9895 19.9918 55.9865 20.4763L55.872 24.2907C55.8686 24.8357 55.5339 25.1061 54.8678 25.102C54.565 25.1001 54.2624 25.068 53.96 25.0055C53.6576 24.9431 53.355 24.9109 53.0522 24.9091C51.7813 24.7801 48.9965 24.6417 44.6979 24.4939C43.3051 24.4853 39.7633 24.3422 34.0726 24.0647C32.1958 23.9925 30.3492 23.9205 28.5329 23.8487C26.7772 23.7773 25.2332 23.7374 23.901 23.7292C20.9944 23.7112 17.3003 23.7185 12.8188 23.7513C8.39754 23.845 5.76263 23.9498 4.9141 24.0657C4.6715 24.1247 4.33826 24.1529 3.91437 24.1503C3.49049 24.1477 3.21836 24.0854 3.098 23.9636C2.91671 23.9019 2.79691 23.6892 2.73861 23.3255C2.49939 22.8395 2.38316 22.0516 2.38992 20.9616C2.3963 19.9321 2.40024 19.2963 2.40174 19.0541Z" fill="#1E5FD6"/>
<path d="M2.37904 34.4536C2.37734 33.9691 2.43683 33.6662 2.55751 33.5446C2.61764 33.4233 2.7991 33.3621 3.10188 33.361C3.28355 33.3604 3.55605 33.3594 3.91939 33.3581C4.3435 33.4172 4.88861 33.4456 5.55472 33.4432L15.456 33.4992L31.2618 33.6252C32.9573 33.6193 36.5911 33.7276 42.1632 33.9502C48.4013 34.1705 51.823 34.2493 52.4284 34.1866L53.9723 34.0903C54.6384 34.088 55.1231 34.1771 55.4266 34.3577C55.7905 34.5381 55.9734 34.8705 55.9751 35.3549L55.8977 39.1703C55.8996 39.7153 55.5675 39.989 54.9014 39.9913C54.5986 39.9924 54.2957 39.9632 53.9927 39.9037C53.6897 39.8442 53.3868 39.815 53.0841 39.8161C51.812 39.6994 49.0259 39.5881 44.726 39.4821C43.3332 39.487 39.7903 39.3784 34.0971 39.1562C32.2197 39.1023 30.3725 39.0482 28.5556 38.9941C26.7993 38.9397 25.255 38.9148 23.9227 38.9195C21.0161 38.9298 17.3222 38.973 12.8413 39.0494C8.42112 39.186 5.78735 39.3164 4.93999 39.4405C4.69798 39.5019 4.36503 39.5334 3.94113 39.5349C3.51724 39.5364 3.24452 39.4768 3.12298 39.3561C2.9411 39.2962 2.81924 39.0846 2.75741 38.7215C2.51348 38.2379 2.3896 37.4511 2.38576 36.3611C2.38214 35.3317 2.3799 34.6958 2.37904 34.4536Z" fill="#1E5FD6"/>
</svg>
