<?xml version="1.0" encoding="UTF-8"?>
<svg id="Layer_1" xmlns="http://www.w3.org/2000/svg" version="1.1" viewBox="0 0 23 37">
  <!-- Generator: Adobe Illustrator 30.1.0, SVG Export Plug-In . SVG Version: 2.1.1 Build 136)  -->
  <defs>
    <style>
      .st0 {
        fill: #04389e;
      }
    </style>
  </defs>
  <path class="st0" d="M11.85,36.8c-4.77,0-7.93-2-9.5-6C.78,26.77,0,22.45,0,17.85s.6-7.98,1.8-10.65c1.23-2.67,2.72-4.53,4.45-5.6,1.77-1.07,3.52-1.6,5.25-1.6,3.33,0,5.83.97,7.5,2.9,1.67,1.9,2.73,4.17,3.2,6.8.47,2.6.7,5.55.7,8.85,0,2.67-.4,5.42-1.2,8.25-.8,2.8-2.03,5.17-3.7,7.1-1.67,1.93-3.72,2.9-6.15,2.9ZM11.45,24.1c.9,0,1.57-.5,2-1.5s.65-2.2.65-3.6-.22-2.5-.65-3.5c-.4-1-.95-1.5-1.65-1.5-.83,0-1.47.58-1.9,1.75-.4,1.13-.6,2.37-.6,3.7s.13,2.48.4,3.35c.27.87.85,1.3,1.75,1.3Z"/>
</svg>