<?xml version="1.0" encoding="UTF-8"?>
<svg xmlns="http://www.w3.org/2000/svg" version="1.1" viewBox="0 0 1340.6 312.8">
  <!-- Generator: Adobe Illustrator 29.8.4, SVG Export Plug-In . SVG Version: 2.1.1 Build 6)  -->
  <defs>
    <style>
      .st0 {
        fill: #ea6884;
      }

      .st1 {
        fill: #cecece;
      }

      .st2 {
        stroke-width: 4px;
      }

      .st2, .st3, .st4, .st5 {
        stroke-miterlimit: 10;
      }

      .st2, .st6, .st4, .st7 {
        fill: #fff;
      }

      .st2, .st4, .st5 {
        stroke: #000;
      }

      .st8 {
        fill: #d8d7d6;
      }

      .st3 {
        stroke: #ee1400;
      }

      .st3, .st5 {
        fill: none;
        stroke-width: 2px;
      }

      .st9 {
        fill: #1c1a18;
      }

      .st4 {
        stroke-width: .2px;
      }

      .st10 {
        fill: #cae6ea;
      }

      .st7 {
        font-family: Anton-Regular, Anton;
        font-size: 40px;
      }

      .st11 {
        fill: #d8d8d8;
        opacity: .4;
      }
    </style>
  </defs>
  <g id="fart">
    <path class="st10" d="M1174.5,205.7c-.5,1.1-.8,2.2-.8,3.4-.1,7.7,10.4,14.1,23.6,14.4,2.8,0,5.6-.2,8.1-.7,6.4,6.2,18.2,10.5,31.8,10.7,20.7.4,37.6-8.7,37.8-20.3,0-2.3-.6-4.5-1.7-6.5,14-1.9,24-7.4,24.1-14s-8.4-11.7-20.9-14.4c-3.1-12.9-18.8-23-37.9-23.4-12.7-.2-24.1,3.9-31.3,10.4-4.8-1.8-10.3-2.9-16.2-3-18.3-.4-33.2,8.5-33.5,19.8,0,1.2.1,2.5.5,3.6-5.4,1.8-9.1,5.4-9.2,9.7-.1,6.2,7.5,11.3,16.9,11.5s6-.4,8.6-1.3"/>
    <path class="st10" d="M1131.3,219.3s12.9-2.8,12.6-5.3c-.4-3.8-6.5,3.5-12.6,5.3Z"/>
    <path class="st10" d="M1140.9,222.4s12,5.3,13.3,3.2c2-3.3-7.3-1-13.3-3.2Z"/>
    <path class="st10" d="M1137.7,220.4s45.4-7.1,40.4-12c-20.2-19.9-21.3,8.3-40.4,12Z"/>
    <path class="st10" d="M1253.5,143.6c.4.2.9.2,1.4.2,1.6,0,2.9-.9,2.9-1.9s-.6-1.3-1.5-1.6c0-.2,0-.4,0-.6,0-1.9-2.6-3.4-5.6-3.3-1,0-1.9.2-2.7.5-1.2-1.1-3.1-1.8-5.3-1.8-3.2,0-5.9,1.8-6.4,3.9-2.1.5-3.5,1.4-3.5,2.4s1.7,2,4.1,2.4c-.2.3-.3.7-.3,1.1,0,2,2.9,3.5,6.4,3.4,2.3,0,4.3-.8,5.4-1.8.4,0,.9.1,1.4.1,2.2,0,4-1.1,4-2.4s0-.4-.1-.6"/>
    <path class="st10" d="M1293.1,135.1c.4.2.9.2,1.4.2,1.6,0,2.9-.9,2.9-1.9s-.6-1.3-1.5-1.6c0-.2,0-.4,0-.6,0-1.9-2.6-3.4-5.6-3.3-1,0-1.9.2-2.7.5-1.2-1.1-3.1-1.8-5.3-1.8-3.2,0-5.9,1.8-6.4,3.9-2.1.5-3.5,1.4-3.5,2.4s1.7,2,4.1,2.4c-.2.3-.3.7-.3,1.1,0,2,2.9,3.5,6.4,3.4,2.3,0,4.3-.8,5.4-1.8.4,0,.9.1,1.4.1,2.2,0,4-1.1,4-2.4s0-.4-.1-.6"/>
    <path class="st10" d="M1293.1,156.9c.4.2.9.2,1.4.2,1.6,0,2.9-.9,2.9-1.9s-.6-1.3-1.5-1.6c0-.2,0-.4,0-.6,0-1.9-2.6-3.4-5.6-3.3-1,0-1.9.2-2.7.5-1.2-1.1-3.1-1.8-5.3-1.8-3.2,0-5.9,1.8-6.4,3.9-2.1.5-3.5,1.4-3.5,2.4s1.7,2,4.1,2.4c-.2.3-.3.7-.3,1.1,0,2,2.9,3.5,6.4,3.4,2.3,0,4.3-.8,5.4-1.8.4,0,.9.1,1.4.1,2.2,0,4-1.1,4-2.4s0-.4-.1-.6"/>
  </g>
  <g id="Layer_1">
    <ellipse class="st11" cx="131.2" cy="266.6" rx="110.9" ry="6.8"/>
    <ellipse class="st11" cx="711.4" cy="281.5" rx="44.9" ry="6.8"/>
    <ellipse class="st11" cx="428.6" cy="266.6" rx="110.9" ry="6.8"/>
    <ellipse class="st11" cx="1008.9" cy="266.6" rx="110.9" ry="6.8"/>
    <text class="st7" transform="translate(1192.1 208.7)"><tspan x="0" y="0">404</tspan></text>
  </g>
  <g id="legs_bend">
    <path class="st5" d="M406.6,246.9s-6.1,4.7-8.1,6.4,2.3,7.8.9,9.7-2.1,2-2.9,2.2c0,0-7.1,1.6-7.2-.4,0-4,9.4-1,9.4-1"/>
    <path class="st5" d="M443.3,247.8s6.1,4.7,8.1,6.4c1.2,1-2.3,7.8-.9,9.7,1,1.4,2.1,2,2.9,2.2,0,0,7.1,1.6,7.2-.4,0-4-9.4-1-9.4-1"/>
  </g>
  <g id="legs_in_air">
    <path class="st5" d="M696.3,216.5s-1,15.3-1.7,17.6c-.5,1.7-1.8,10.6-3,9-2.6-3.5,2.6-8.1,2.6-8.1"/>
    <path class="st5" d="M723.4,216.5s1,15.3,1.7,17.6,1.8,10.6,3,9c2.6-3.5-2.6-8.1-2.6-8.1"/>
  </g>
  <g id="leaf">
    <path class="st3" d="M265.2,163.9s-5.3-131.8-127.6-131.8c-119.3,0-128.3,130.9-128.3,130.9"/>
    <path class="st2" d="M116.8,99.7s-71,4.7-82.2,78.3c-11.1,72.9,101.8,70,101.8,70,0,0,118.7,4.2,102.5-70-16.7-76.4-85.1-78.3-85.1-78.3,0,0,16-20.6,10-24.8-6-4.2-19.8,12.4-19.8,12.4,0,0-1.6-16.8-7.2-16.8s-10.4,10.2-8,17.6c2.4,7.4-5.5-16.2-13.4-12.2s-7,8.6,1.4,23.8Z"/>
    <path class="st5" d="M239.4,171.2s19.9,1.5,25.5-5.2,1.2-1.8,1.4-2.9c1.8-10-2.8-1.2-2.8-1.2,0,0-1.1,2,.5,2.6s2-.5,2-.5"/>
    <path class="st5" d="M115.3,246.9s-3.7,11.2-7.2,16.1c-1,1.4-2.1,2-2.9,2.2,0,0-7.1,1.6-7.2-.4,0-4,9.4-1,9.4-1"/>
    <path class="st5" d="M151.9,247.8s3.7,11.2,7.2,16.1c1,1.4,2.1,2,2.9,2.2,0,0,7.1,1.6,7.2-.4,0-4-9.4-1-9.4-1"/>
    <path class="st5" d="M34.4,172s-19.9.3-25.2-6.7c-.6-.9-1.1-1.8-1.2-3-1.2-10.1,2.8-1,2.8-1,0,0,1,2-.7,2.6-1.9.6-1.9-.6-1.9-.6"/>
    <g>
      <circle class="st6" cx="119.9" cy="181.1" r="15"/>
      <circle class="st6" cx="155.8" cy="181.1" r="15"/>
      <circle class="st9" cx="119.9" cy="177.4" r="11.3"/>
      <circle class="st9" cx="156" cy="177" r="11.3"/>
      <circle class="st8" cx="124.1" cy="170.9" r="2.2"/>
      <circle class="st8" cx="160.6" cy="170.9" r="2.2"/>
      <path class="st5" d="M126.8,200.4c-.3-.4.1-.9.6-.8,3.6,1.4,12.1,3.9,20.3-.8,2.2-1.2-1.3,2.4-4.7,5.8-2.8,2.8-7.3,3-10.4.5l-5.8-4.8Z"/>
      <circle class="st0" cx="109.7" cy="202.7" r="4.3"/>
      <circle class="st0" cx="167.3" cy="201.5" r="4.3"/>
    </g>
    <path class="st1" d="M126,107.1c-6.1,2-12.3,3.9-18.4,5.9l-2.6.8c-1.8.6-1,3.5.8,2.9,6.1-2,12.3-3.9,18.4-5.9l2.6-.8c1.8-.6,1-3.5-.8-2.9h0Z"/>
    <path class="st1" d="M133.4,108.5v11.9c0,1.9,3,1.9,3,0v-11.9c0-1.9-3-1.9-3,0h0Z"/>
    <path class="st1" d="M147.6,109.8c4.2,2.6,8.4,5.3,12.7,7.9s1.2.7,1.8,1.1c1.6,1,3.1-1.6,1.5-2.6-4.2-2.6-8.4-5.3-12.7-7.9s-1.2-.7-1.8-1.1c-1.6-1-3.1,1.6-1.5,2.6h0Z"/>
    <path class="st2" d="M408.2,99.7s-71,4.7-82.2,78.3c-11.1,72.9,101.8,70,101.8,70,0,0,118.7,4.2,102.5-70-16.7-76.4-85.1-78.3-85.1-78.3,0,0,16-20.6,10-24.8-6-4.2-19.8,12.4-19.8,12.4,0,0-1.6-16.8-7.2-16.8s-10.4,10.2-8,17.6c2.4,7.4-5.5-16.2-13.4-12.2-6.4,3.2-7,8.6,1.4,23.8Z"/>
    <path class="st5" d="M530.7,171.2s19.9,1.5,25.5-5.2,1.2-1.8,1.4-2.9c1.8-10-2.8-1.2-2.8-1.2,0,0-1.1,2,.5,2.6s2-.5,2-.5"/>
    <path class="st5" d="M325.7,172s-19.9.3-25.2-6.7-1.1-1.8-1.2-3c-1.2-10.1,2.8-1,2.8-1,0,0,1,2-.7,2.6-1.9.6-1.9-.6-1.9-.6"/>
    <g>
      <circle class="st6" cx="411.3" cy="181.1" r="15"/>
      <circle class="st6" cx="447.1" cy="181.1" r="15"/>
      <circle class="st9" cx="411.3" cy="177.4" r="11.3"/>
      <circle class="st9" cx="447.3" cy="177" r="11.3"/>
      <circle class="st8" cx="415.5" cy="170.9" r="2.2"/>
      <circle class="st8" cx="451.9" cy="170.9" r="2.2"/>
      <path class="st5" d="M418.2,200.4c-.3-.4.1-.9.6-.8,3.6,1.4,12.1,3.9,20.3-.8,2.2-1.2-1.3,2.4-4.7,5.8-2.8,2.8-7.3,3-10.4.5l-5.8-4.8Z"/>
      <circle class="st0" cx="401" cy="202.7" r="4.3"/>
      <circle class="st0" cx="458.6" cy="201.5" r="4.3"/>
    </g>
    <path class="st1" d="M417.3,107.1c-6.1,2-12.3,3.9-18.4,5.9l-2.6.8c-1.8.6-1,3.5.8,2.9,6.1-2,12.3-3.9,18.4-5.9l2.6-.8c1.8-.6,1-3.5-.8-2.9h0Z"/>
    <path class="st1" d="M424.7,108.5v11.9c0,1.9,3,1.9,3,0v-11.9c0-1.9-3-1.9-3,0h0Z"/>
    <path class="st1" d="M439,109.8c4.2,2.6,8.4,5.3,12.7,7.9s1.2.7,1.8,1.1c1.6,1,3.1-1.6,1.5-2.6-4.2-2.6-8.4-5.3-12.7-7.9s-1.2-.7-1.8-1.1c-1.6-1-3.1,1.6-1.5,2.6h0Z"/>
    <path class="st3" d="M842.9,131.4s-16.1,131.6-138.5,131.6c-119.3,0-117.5-132.6-117.5-132.6"/>
    <path class="st2" d="M694.6,67.3s-71,4.7-82.2,78.3c-11.1,72.9,101.8,70,101.8,70,0,0,118.7,4.2,102.5-70-16.7-76.4-85.1-78.3-85.1-78.3,0,0,16-20.6,10-24.8-6-4.2-19.8,12.4-19.8,12.4,0,0-1.6-16.8-7.2-16.8s-10.4,10.2-8,17.6c2.4,7.4-5.5-16.2-13.4-12.2-6.4,3.2-7,8.6,1.4,23.8Z"/>
    <path class="st5" d="M817.1,138.7s19.9,1.5,25.5-5.2c.7-.8,1.2-1.8,1.4-2.9,1.8-10-2.8-1.2-2.8-1.2,0,0-1.1,2,.5,2.6s2-.5,2-.5"/>
    <path class="st5" d="M612.1,139.6s-19.9.3-25.2-6.7c-.6-.9-1.1-1.8-1.2-3-1.2-10.1,2.8-1,2.8-1,0,0,1,2-.7,2.6-1.9.6-1.9-.6-1.9-.6"/>
    <g>
      <circle class="st6" cx="697.7" cy="148.6" r="15"/>
      <circle class="st6" cx="733.5" cy="148.6" r="15"/>
      <circle class="st9" cx="697.7" cy="144.9" r="11.3"/>
      <circle class="st9" cx="733.7" cy="144.6" r="11.3"/>
      <circle class="st8" cx="701.9" cy="138.5" r="2.2"/>
      <circle class="st8" cx="738.3" cy="138.5" r="2.2"/>
      <path class="st5" d="M704.5,167.9c-.3-.4.1-.9.6-.8,3.6,1.4,12.1,3.9,20.3-.8,2.2-1.2-1.3,2.4-4.7,5.8-2.8,2.8-7.3,3-10.4.5l-5.8-4.8Z"/>
      <circle class="st0" cx="687.4" cy="170.3" r="4.3"/>
      <circle class="st0" cx="745" cy="169" r="4.3"/>
    </g>
    <path class="st1" d="M703.7,74.6c-6.1,2-12.3,3.9-18.4,5.9l-2.6.8c-1.8.6-1,3.5.8,2.9,6.1-2,12.3-3.9,18.4-5.9l2.6-.8c1.8-.6,1-3.5-.8-2.9h0Z"/>
    <path class="st1" d="M711.1,76.1v11.9c0,1.9,3,1.9,3,0v-11.9c0-1.9-3-1.9-3,0h0Z"/>
    <path class="st1" d="M725.3,77.4c4.2,2.6,8.4,5.3,12.7,7.9s1.2.7,1.8,1.1c1.6,1,3.1-1.6,1.5-2.6-4.2-2.6-8.4-5.3-12.7-7.9-.6-.4-1.2-.7-1.8-1.1-1.6-1-3.1,1.6-1.5,2.6h0Z"/>
    <path class="st5" d="M976.3,245s-6.1,4.7-8.1,6.4c-1.2,1,2.3,7.8.9,9.7-1,1.4-2.1,2-2.9,2.2,0,0-7.1,1.6-7.2-.4,0-4,9.4-1,9.4-1"/>
    <path class="st5" d="M1012.9,245.9s6.1,4.7,8.1,6.4-2.3,7.8-.9,9.7c1,1.4,2.1,2,2.9,2.2,0,0,7.1,1.6,7.2-.4,0-4-9.4-1-9.4-1"/>
    <path class="st3" d="M1126.1,162.1s-5.6-113.2-128-113.2c-119.3,0-128,112.3-128,112.3"/>
    <path class="st2" d="M977.8,97.9s-71,4.7-82.2,78.3c-11.1,72.9,101.8,70,101.8,70,0,0,118.7,4.2,102.5-70-16.7-76.4-85.1-78.3-85.1-78.3,0,0,16-20.6,10-24.8-6-4.2-19.8,12.4-19.8,12.4,0,0-1.6-16.8-7.2-16.8s-10.4,10.2-8,17.6c2.4,7.4-5.5-16.2-13.4-12.2-6.4,3.2-7,8.6,1.4,23.8Z"/>
    <path class="st5" d="M1100.4,169.3s19.9,1.5,25.5-5.2c.7-.8,1.2-1.8,1.4-2.9,1.8-10-2.8-1.2-2.8-1.2,0,0-1.1,2,.5,2.6s2-.5,2-.5"/>
    <path class="st5" d="M895.3,170.2s-19.9.3-25.2-6.7c-.6-.9-1.1-1.8-1.2-3-1.2-10.1,2.8-1,2.8-1,0,0,1,2-.7,2.6-1.9.6-1.9-.6-1.9-.6"/>
    <circle class="st4" cx="980.9" cy="179.2" r="15"/>
    <circle class="st4" cx="1016.8" cy="179.2" r="15"/>
    <g>
      <circle class="st9" cx="980.9" cy="179.5" r="11.3"/>
      <circle class="st9" cx="1017" cy="179.2" r="11.3"/>
      <circle class="st8" cx="985.1" cy="173.1" r="2.2"/>
      <circle class="st8" cx="1021.5" cy="173.1" r="2.2"/>
    </g>
    <circle class="st0" cx="970.6" cy="200.9" r="4.3"/>
    <circle class="st0" cx="1028.3" cy="199.7" r="4.3"/>
    <path class="st1" d="M986.9,105.2c-6.1,2-12.3,3.9-18.4,5.9l-2.6.8c-1.8.6-1,3.5.8,2.9,6.1-2,12.3-3.9,18.4-5.9l2.6-.8c1.8-.6,1-3.5-.8-2.9h0Z"/>
    <path class="st1" d="M994.4,106.7v11.9c0,1.9,3,1.9,3,0v-11.9c0-1.9-3-1.9-3,0h0Z"/>
    <path class="st1" d="M1008.6,108c4.2,2.6,8.4,5.3,12.7,7.9s1.2.7,1.8,1.1c1.6,1,3.1-1.6,1.5-2.6-4.2-2.6-8.4-5.3-12.7-7.9s-1.2-.7-1.8-1.1c-1.6-1-3.1,1.6-1.5,2.6h0Z"/>
    <path class="st3" d="M556.5,163.9s5.6-55.4-116.8-55.4c-119.3,0-139.2,54.5-139.2,54.5"/>
    <ellipse class="st5" cx="999.5" cy="205.2" rx="7.7" ry="1.6" transform="translate(719.7 1186.4) rotate(-85.7)"/>
  </g>
</svg>