<svg width="36" height="64" viewBox="0 0 36 64" fill="none" xmlns="http://www.w3.org/2000/svg">
<path d="M19.7117 13.321C20.1783 13.321 20.4118 13.6473 20.4118 14.3005C20.4118 14.5337 20.3882 14.8138 20.3415 15.1403C20.2949 15.4203 20.2722 15.7011 20.2722 15.9811C20.1322 17.008 20.0149 19.6444 19.9216 23.8903C19.9216 25.197 19.829 28.5108 19.6423 33.8308C19.4557 38.964 19.362 42.0906 19.362 43.2107C19.362 45.9173 19.4084 49.3474 19.5017 53.5007C19.595 57.6067 19.6886 60.0566 19.782 60.8504C19.8286 61.1304 19.8523 61.4575 19.8523 61.8308C19.8523 62.1574 19.7822 62.391 19.6423 62.531C19.549 62.671 19.3854 62.811 19.1521 62.951C18.8721 63.1376 18.1486 63.2312 16.9822 63.2312H16.072C15.6987 63.2312 15.4652 63.1839 15.3718 63.0906C15.2786 62.9973 15.2322 62.8108 15.2322 62.531L15.3015 60.2908L15.4421 51.1209L15.5818 36.4206C15.5818 35.0206 15.6754 31.8474 15.8621 26.9011C15.9087 25.7345 15.9787 23.8443 16.072 21.2311C16.1653 18.5712 16.1653 17.0074 16.072 16.5407L16.0017 15.071C16.0017 13.8577 16.3752 13.2507 17.1218 13.2507L19.7117 13.321ZM16.7771 0.277973C17.0124 -0.0561993 17.3205 -0.0890646 17.7019 0.17934L18.1667 0.494771C18.4938 0.312101 18.7621 0.368954 18.9724 0.667623C19.0564 0.786928 19.1381 0.943555 19.2175 1.13735C19.2297 1.17035 19.243 1.20302 19.2566 1.23501L19.8454 1.63442C20.3899 2.01775 20.516 2.47619 20.2273 3.01138C20.6605 3.73463 21.2602 4.6828 22.0261 5.85611C22.4968 6.52464 23.614 8.27384 25.3777 11.1032C27.0738 13.8365 28.1235 15.4899 28.5271 16.0632C29.502 17.448 30.776 19.1765 32.3483 21.2477C33.9039 23.2951 34.8632 24.4952 35.2253 24.8474C35.3641 24.9637 35.5011 25.1175 35.6355 25.3083C35.7528 25.4752 35.7794 25.6348 35.7155 25.7868C35.6897 25.9121 35.6068 26.0781 35.4665 26.2839C35.3048 26.5406 34.7466 27.0049 33.7927 27.6765C33.6401 27.7839 33.3919 27.9582 33.0485 28.1999C32.7433 28.4148 32.5354 28.526 32.4255 28.5319C32.3157 28.5378 32.2099 28.469 32.1091 28.3259L31.3601 27.1394L28.1716 22.3669L22.9909 14.7653C22.4867 14.0491 21.4198 12.3721 19.7908 9.73405C19.4087 9.11028 18.7847 8.10238 17.9197 6.71158C17.8629 6.62048 17.8058 6.53293 17.7517 6.44693C16.9271 7.77306 16.3293 8.73849 15.9587 9.34342C14.3295 11.9817 13.2629 13.6594 12.7585 14.3757L7.57789 21.9772L4.38942 26.7497L3.63942 27.9362C3.53862 28.0793 3.43289 28.1483 3.32302 28.1423C3.21304 28.1362 3.00586 28.0249 2.70095 27.8103C2.3578 27.5687 2.10947 27.3943 1.95681 27.2868C1.003 26.6153 0.444784 26.151 0.282984 25.8942C0.142661 25.6883 0.0598716 25.5225 0.0339611 25.3972C-0.0300834 25.2449 -0.00363033 25.0848 0.114039 24.9177C0.248449 24.7268 0.385251 24.5731 0.524194 24.4567C0.886357 24.1044 1.84574 22.9052 3.40114 20.8581C4.97349 18.7869 6.24648 17.0583 7.22145 15.6735C7.62488 15.1005 8.67542 13.4473 10.3718 10.7135C12.1355 7.88419 13.2527 6.135 13.7234 5.46646C14.4049 4.42248 14.9528 3.55549 15.3708 2.86782C15.3728 2.57303 15.5299 2.30699 15.8435 2.06899C16.0544 1.69874 16.2026 1.41513 16.2859 1.21743C16.3867 1.0742 16.4693 0.917776 16.532 0.747701C16.6114 0.553858 16.6931 0.397295 16.7771 0.277973Z" fill="#04389E"/>
</svg>
