<svg width="104" height="23" viewBox="0 0 104 23" fill="none" xmlns="http://www.w3.org/2000/svg">
<path d="M95.7255 22.2C95.4255 22.2 95.2755 22.08 95.2755 21.84V16.11V13.59L95.4855 5.06995C95.4855 4.84995 95.5355 4.72995 95.6355 4.70995C95.7155 4.66995 95.9455 4.64995 96.3255 4.64995C97.0855 4.64995 97.5055 4.66995 97.5855 4.70995C97.6455 4.70995 97.6955 4.74995 97.7355 4.82995C97.7955 4.88995 97.8255 4.93995 97.8255 4.97995L97.7955 6.02995L99.1155 5.48995C101.096 4.62995 102.236 4.19995 102.536 4.19995H102.566C102.706 4.19995 102.816 4.37995 102.896 4.73995C102.896 5.17995 102.906 5.51995 102.926 5.75995C102.926 5.97995 102.946 6.18995 102.986 6.38995L103.016 7.04995V7.10995C103.016 7.18995 102.986 7.26995 102.926 7.34995C102.866 7.42995 102.816 7.47995 102.776 7.49995C102.136 7.65995 101.446 7.78995 100.706 7.88995C99.9855 7.96995 99.5655 8.01995 99.4455 8.03995L97.7355 8.27995V12.51V13.83L97.7955 15.39C97.7955 15.97 97.7855 16.46 97.7655 16.86C97.7055 17.52 97.6755 18.28 97.6755 19.14V20.16C97.6755 21.16 97.6355 21.78 97.5555 22.02C97.5555 22.16 97.3955 22.23 97.0755 22.23L95.7255 22.2Z" fill="#1E5FD6"/>
<path d="M89.3297 22.44C89.1697 22.44 89.0696 22.42 89.0296 22.38C88.9896 22.36 88.9697 22.3 88.9697 22.2C88.9697 22.14 88.9697 22.05 88.9697 21.93C88.9897 21.79 88.9996 21.61 88.9996 21.39L89.0296 18.12L89.0897 12.9C89.0897 12.34 89.1296 11.14 89.2096 9.29996C89.2896 7.23996 89.3197 6.10996 89.2997 5.90996L89.2697 5.39996C89.2697 5.17996 89.2996 5.01996 89.3596 4.91996C89.4196 4.79996 89.5297 4.73996 89.6897 4.73996L90.9497 4.76996C91.1297 4.76996 91.2197 4.87996 91.2197 5.09996C91.2197 5.19996 91.2097 5.29996 91.1897 5.39996C91.1697 5.49996 91.1597 5.59996 91.1597 5.69996C91.1197 6.11996 91.0797 7.03996 91.0396 8.45996C91.0396 8.91996 90.9996 10.09 90.9196 11.97C90.8996 12.59 90.8796 13.2 90.8596 13.8C90.8396 14.38 90.8297 14.89 90.8297 15.33C90.8297 16.29 90.8396 17.51 90.8596 18.99C90.8996 20.45 90.9397 21.32 90.9797 21.6C90.9997 21.68 91.0097 21.79 91.0097 21.93C91.0097 22.07 90.9897 22.16 90.9497 22.2C90.9297 22.26 90.8596 22.3 90.7396 22.32C90.5796 22.4 90.3196 22.44 89.9596 22.44C89.6196 22.44 89.4097 22.44 89.3297 22.44ZM90.3196 3.62996C89.8996 3.62996 89.5097 3.46996 89.1497 3.14996C88.8097 2.82996 88.6396 2.42996 88.6396 1.94996C88.6396 1.52996 88.7897 1.15996 89.0897 0.839956C89.4097 0.499956 89.7797 0.329956 90.1997 0.329956C90.6997 0.329956 91.1497 0.459956 91.5497 0.719956C91.9497 0.979957 92.1497 1.33996 92.1497 1.79996C92.1497 2.35996 91.9497 2.80996 91.5497 3.14996C91.1497 3.46996 90.7396 3.62996 90.3196 3.62996Z" fill="#1E5FD6"/>
<path d="M77.9545 22.8299C75.0745 22.8299 73.2445 22.2799 72.4645 21.1799C71.6845 20.0599 71.2745 19.4799 71.2345 19.4399C71.1545 19.3399 71.1145 19.2399 71.1145 19.1399C71.1145 19.0799 71.1945 18.9499 71.3545 18.7499C71.6145 18.3899 71.9945 17.9599 72.4945 17.4599C72.5745 17.3799 72.6545 17.3399 72.7345 17.3399C72.8345 17.3399 72.9445 17.4199 73.0645 17.5799C73.1845 17.7199 73.2845 17.8299 73.3645 17.9099C74.5445 19.0899 75.8845 19.6799 77.3845 19.6799C78.1445 19.6799 78.8045 19.5399 79.3645 19.2599C79.9245 18.9599 80.2045 18.4099 80.2045 17.6099C80.2045 16.2299 79.1145 14.7599 76.9345 13.1999C76.5745 12.9599 76.2345 12.7599 75.9145 12.5999C75.0745 12.1399 74.3545 11.6899 73.7545 11.2499C73.1545 10.8099 72.6245 10.2299 72.1645 9.50994C71.7045 8.78994 71.4745 7.94994 71.4745 6.98994C71.4745 5.78994 71.8445 4.70994 72.5845 3.74994C73.3445 2.78994 74.2445 2.03994 75.2845 1.49994C76.3445 0.959941 77.2645 0.689941 78.0445 0.689941C79.9445 0.689941 81.5045 1.06994 82.7245 1.82994C83.9645 2.56994 84.9245 3.27994 85.6045 3.95994C85.6845 4.03994 85.7245 4.12994 85.7245 4.22994C85.7245 4.28994 85.6945 4.36994 85.6345 4.46994C85.5945 4.54994 85.5645 4.60994 85.5445 4.64994C85.4445 4.78994 85.2745 5.03994 85.0345 5.39994C84.8145 5.73994 84.6345 5.98994 84.4945 6.14994C84.4345 6.22994 84.3645 6.31994 84.2845 6.41994C84.2245 6.49994 84.1645 6.55994 84.1045 6.59994C84.0645 6.63994 83.9945 6.65994 83.8945 6.65994C83.8545 6.65994 83.7545 6.59994 83.5945 6.47994C83.4545 6.33994 83.3145 6.21994 83.1745 6.11994C82.3745 5.41994 81.5945 4.81994 80.8345 4.31994C80.0745 3.81994 79.3445 3.56994 78.6445 3.56994C78.0845 3.56994 77.6245 3.69994 77.2645 3.95994C76.9045 4.19994 76.7245 4.75994 76.7245 5.63994C76.7245 6.49994 77.0445 7.16994 77.6845 7.64994C78.3245 8.12994 79.1745 8.58994 80.2345 9.02994C80.3345 9.06994 80.9145 9.31994 81.9745 9.77994C83.0545 10.2399 84.0045 11.1199 84.8245 12.4199C85.6645 13.7199 86.0845 15.2699 86.0845 17.0699C86.0845 18.9899 85.3645 20.4299 83.9245 21.3899C82.4845 22.3499 80.4945 22.8299 77.9545 22.8299Z" fill="#1E5FD6"/>
<path d="M54.7389 22.53C51.8789 22.53 49.9189 21.67 48.8589 19.95C47.7989 18.23 47.2689 15.92 47.2689 13.02C47.2689 11.52 47.5789 10.1 48.1989 8.76001C48.8389 7.40001 49.6989 6.31001 50.7789 5.49001C51.8789 4.67001 53.0889 4.26001 54.4089 4.26001C56.0089 4.26001 57.2989 4.80001 58.2789 5.88001C59.2589 6.96001 59.9489 8.33001 60.3489 9.99001C60.7689 11.63 60.9789 13.36 60.9789 15.18C60.9989 15.32 60.9489 15.41 60.8289 15.45C60.7089 15.49 60.4689 15.51 60.1089 15.51C59.4689 15.47 58.9489 15.45 58.5489 15.45C57.8889 15.45 57.0189 15.47 55.9389 15.51L55.1589 15.54H54.1389C52.7189 15.54 51.7989 15.53 51.3789 15.51C50.4189 15.51 49.7189 15.5 49.2789 15.48C49.3989 17.28 49.8889 18.64 50.7489 19.56C51.6289 20.46 52.9189 20.91 54.6189 20.91C55.5189 20.91 56.4089 20.67 57.2889 20.19C58.1689 19.69 58.7989 19.07 59.1789 18.33C59.1989 18.31 59.2289 18.3 59.2689 18.3C59.3689 18.3 59.4889 18.37 59.6289 18.51C59.7889 18.63 59.9089 18.72 59.9889 18.78C60.2089 18.92 60.3689 19.03 60.4689 19.11C60.5689 19.19 60.6289 19.3 60.6489 19.44C60.0889 20.26 59.2589 20.98 58.1589 21.6C57.0789 22.22 55.9389 22.53 54.7389 22.53ZM55.5189 13.65C56.0589 13.65 56.5889 13.64 57.1089 13.62C57.6489 13.58 58.3089 13.52 59.0889 13.44C58.8689 11.4 58.3989 9.64001 57.6789 8.16001C56.9789 6.68001 56.0689 5.94001 54.9489 5.94001C53.9889 5.94001 53.0889 6.28001 52.2489 6.96001C51.4089 7.62001 50.7189 8.53001 50.1789 9.69001C49.6389 10.85 49.3289 12.15 49.2489 13.59C49.3889 13.59 49.5789 13.6 49.8189 13.62C50.0589 13.62 50.3989 13.61 50.8389 13.59L55.5189 13.65Z" fill="#1E5FD6"/>
<path d="M43.0803 22.32C42.1203 22.32 41.4003 22.21 40.9203 21.99C40.4603 21.75 40.1503 21.42 39.9903 21C39.8503 20.56 39.7803 19.98 39.7803 19.26L39.8103 17.34C39.8303 17 39.8403 16.43 39.8403 15.63L39.8103 12.12C39.7903 11.82 39.7803 11.5 39.7803 11.16V10.26V6.54V5.34C39.7803 4.62 39.7903 4.06 39.8103 3.66L39.8403 2.52V1.23C39.8203 0.749998 39.8503 0.429999 39.9303 0.27C40.0303 0.0899999 40.1703 0 40.3503 0C40.4503 0 40.5303 0.00999999 40.5903 0.0299997C40.7503 0.0499995 40.9203 0.059999 41.1003 0.059999C41.3003 0.0399992 41.4803 0.0299997 41.6403 0.0299997H42.3903C42.9103 0.0299997 43.2703 0.0399992 43.4703 0.059999C43.6903 0.0799987 43.8403 0.129999 43.9203 0.209999C44.0203 0.289999 44.0703 0.409999 44.0703 0.57C44.0703 0.629999 44.0503 0.859999 44.0103 1.26C43.8303 2.72 43.7503 4.54 43.7703 6.72C43.7503 7.08 43.7403 7.39 43.7403 7.65C43.7603 7.91 43.7703 8.13 43.7703 8.31V9.12C43.7903 9.62 43.8003 10.32 43.8003 11.22L43.7703 13.86L43.8303 15.78C43.8503 16.26 43.8703 16.81 43.8903 17.43C43.9103 18.05 43.9203 18.64 43.9203 19.2V19.8C43.9203 20.06 44.1403 20.19 44.5803 20.19C44.7803 20.19 44.9503 20.16 45.0903 20.1C45.2503 20.04 45.3603 20.01 45.4203 20.01C45.5803 20.01 45.7103 20.15 45.8103 20.43C45.8903 20.73 45.9903 20.98 46.1103 21.18C46.1303 21.2 46.1403 21.23 46.1403 21.27C46.1403 21.35 46.0903 21.44 45.9903 21.54C45.5903 21.9 45.1903 22.12 44.7903 22.2C44.3903 22.28 43.8203 22.32 43.0803 22.32Z" fill="#1E5FD6"/>
<path d="M34.6063 22.32C33.8063 22.32 33.2063 22.2 32.8063 21.96C32.4063 21.72 32.1463 21.39 32.0263 20.97C31.9063 20.53 31.8463 19.94 31.8463 19.2L31.8763 17.34L32.0263 13.8L32.1163 11.16V6.77996C31.1563 6.77996 30.6063 6.61996 30.4663 6.29996C30.4063 6.13996 30.3763 5.96996 30.3763 5.78996C30.3763 5.58996 30.3863 5.39996 30.4063 5.21996C30.4463 5.03996 30.4663 4.86996 30.4663 4.70996C30.8263 4.72996 31.3763 4.73996 32.1163 4.73996L32.1463 4.61996L32.1763 3.47996V2.18996C32.1563 1.70996 32.1863 1.38996 32.2663 1.22996C32.3663 1.04996 32.5063 0.959961 32.6863 0.959961C32.7863 0.959961 32.8663 0.969961 32.9263 0.989961H32.9863C33.0263 0.989961 33.0963 0.989961 33.1963 0.989961C33.2963 0.969961 33.3863 0.979961 33.4663 1.01996C33.8663 1.07996 34.0663 1.24996 34.0663 1.52996C34.0663 1.58996 34.0463 1.81996 34.0063 2.21996C33.9063 2.91996 33.8363 3.75996 33.7963 4.73996H36.6763C36.8363 4.73996 36.9663 4.87996 37.0663 5.15996C37.1663 5.41996 37.2163 5.69996 37.2163 5.99996C37.2163 6.39996 37.1263 6.62996 36.9463 6.68996C36.5663 6.80996 36.1063 6.86996 35.5663 6.86996C35.0863 6.86996 34.4863 6.82996 33.7663 6.74996V13.86L33.7363 15.06C33.6763 15.84 33.6463 16.65 33.6463 17.49V18.09C33.6463 18.73 33.7863 19.21 34.0663 19.53C34.3463 19.83 34.7163 19.98 35.1763 19.98C35.6163 19.98 35.9963 19.97 36.3163 19.95C36.6363 19.91 36.8663 19.89 37.0063 19.89C37.2263 19.89 37.3363 20.28 37.3363 21.06L37.4563 21.54C37.5163 21.68 37.5063 21.76 37.4263 21.78C36.7863 22.02 36.3063 22.17 35.9863 22.23C35.6863 22.29 35.2263 22.32 34.6063 22.32Z" fill="#1E5FD6"/>
<path d="M25.2183 22.3199C24.2583 22.3199 23.5383 22.2099 23.0583 21.9899C22.5983 21.7499 22.2883 21.4199 22.1283 20.9999C21.9883 20.5599 21.9183 19.9799 21.9183 19.2599L21.9483 17.3399C21.9683 16.9999 21.9783 16.4299 21.9783 15.6299L21.9483 12.1199C21.9283 11.8199 21.9183 11.4999 21.9183 11.1599C21.8983 10.7799 21.8883 10.3599 21.8883 9.8999C21.9083 9.4199 21.9183 8.9799 21.9183 8.5799V6.9599V6.0299H20.7783C20.6783 6.0299 20.6083 6.0099 20.5683 5.9699C20.5283 5.9299 20.5083 5.8999 20.5083 5.8799C20.4883 5.7199 20.4783 5.5299 20.4783 5.3099C20.4783 5.1499 20.4983 4.9699 20.5383 4.7699H21.9183L21.9483 4.5599L21.9783 3.4199V2.1299C21.9583 1.6499 21.9883 1.3299 22.0683 1.1699C22.1683 0.989902 22.3083 0.899902 22.4883 0.899902C22.5883 0.899902 22.6683 0.909902 22.7283 0.929902C22.8883 0.949903 23.0583 0.959903 23.2383 0.959903C23.4383 0.939902 23.6183 0.929902 23.7783 0.929902H24.5283C25.0483 0.929902 25.4083 0.939902 25.6083 0.959903C25.8283 0.979903 25.9783 1.0299 26.0583 1.1099C26.1583 1.1899 26.2083 1.3099 26.2083 1.4699C26.2083 1.5299 26.1883 1.7599 26.1483 2.1599C26.1283 2.2799 26.0883 2.5599 26.0283 2.9999C25.9883 3.4199 25.9483 3.9899 25.9083 4.7099L28.1883 4.7399H28.3383C28.6183 4.7399 28.7683 4.7999 28.7883 4.9199L28.8483 5.4899C28.8683 5.6299 28.8783 5.6699 28.8783 5.6099C28.8983 5.5499 28.9083 5.5699 28.9083 5.6699C28.9083 5.7499 28.8783 5.8199 28.8183 5.8799C28.7783 5.9399 28.7283 5.9699 28.6683 5.9699L27.9783 5.9999C27.3183 6.0599 26.6283 6.0899 25.9083 6.0899V6.2099V7.1399V9.1199C25.9283 9.6199 25.9383 10.3199 25.9383 11.2199L25.9083 13.8599L25.9683 15.0599C26.0283 16.4999 26.0583 17.2299 26.0583 17.2499V17.8499C26.0583 18.2499 26.1083 18.5399 26.2083 18.7199C26.3283 18.8799 26.4983 18.9599 26.7183 18.9599C27.2183 18.9599 27.5683 18.9499 27.7683 18.9299C27.9683 18.8899 28.1383 18.8699 28.2783 18.8699C28.3583 18.8699 28.4283 18.9599 28.4883 19.1399C28.5483 19.3199 28.5883 19.4599 28.6083 19.5599L28.8483 20.4299C28.9283 20.7299 29.0283 20.9799 29.1483 21.1799C29.1683 21.1999 29.1783 21.2299 29.1783 21.2699C29.1783 21.3499 29.1283 21.4399 29.0283 21.5399C28.4883 21.8799 27.9483 22.0999 27.4083 22.1999C26.8683 22.2799 26.1383 22.3199 25.2183 22.3199Z" fill="#1E5FD6"/>
<path d="M15.8824 22.44C15.7224 22.44 15.6224 22.42 15.5824 22.38C15.5424 22.36 15.5224 22.3 15.5224 22.2C15.5224 22.14 15.5224 22.05 15.5224 21.93C15.5424 21.79 15.5524 21.61 15.5524 21.39L15.5824 18.12L15.6424 12.9C15.6424 12.34 15.6824 11.14 15.7624 9.29996C15.8424 7.23996 15.8724 6.10996 15.8524 5.90996L15.8224 5.39996C15.8224 5.17996 15.8524 5.01996 15.9124 4.91996C15.9724 4.79996 16.0824 4.73996 16.2424 4.73996L17.5024 4.76996C17.6824 4.76996 17.7724 4.87996 17.7724 5.09996C17.7724 5.19996 17.7624 5.29996 17.7424 5.39996C17.7224 5.49996 17.7124 5.59996 17.7124 5.69996C17.6724 6.11996 17.6324 7.03996 17.5924 8.45996C17.5924 8.91996 17.5524 10.09 17.4724 11.97C17.4524 12.59 17.4324 13.2 17.4124 13.8C17.3924 14.38 17.3824 14.89 17.3824 15.33C17.3824 16.29 17.3924 17.51 17.4124 18.99C17.4524 20.45 17.4924 21.32 17.5324 21.6C17.5524 21.68 17.5624 21.79 17.5624 21.93C17.5624 22.07 17.5424 22.16 17.5024 22.2C17.4824 22.26 17.4124 22.3 17.2924 22.32C17.1324 22.4 16.8724 22.44 16.5124 22.44C16.1724 22.44 15.9624 22.44 15.8824 22.44ZM16.8724 3.62996C16.4524 3.62996 16.0624 3.46996 15.7024 3.14996C15.3624 2.82996 15.1924 2.42996 15.1924 1.94996C15.1924 1.52996 15.3424 1.15996 15.6424 0.839956C15.9624 0.499956 16.3324 0.329956 16.7524 0.329956C17.2524 0.329956 17.7024 0.459956 18.1024 0.719956C18.5024 0.979957 18.7024 1.33996 18.7024 1.79996C18.7024 2.35996 18.5024 2.80996 18.1024 3.14996C17.7024 3.46996 17.2924 3.62996 16.8724 3.62996Z" fill="#1E5FD6"/>
<path d="M0.81 22.44C0.37 22.44 0.15 22.24 0.15 21.84V19.5L0.27 9.44999C0.27 8.68999 0.22 7.30999 0.12 5.30999L0 1.61998C0 1.27998 0.13 1.10999 0.39 1.10999C0.49 1.10999 0.66 1.13998 0.9 1.19998C1.14 1.25998 1.33 1.28998 1.47 1.28998C2.03 1.36998 2.7 1.40998 3.48 1.40998C4.02 1.40998 4.53 1.37998 5.01 1.31998C5.31 1.27998 5.52 1.29999 5.64 1.37999C5.76 1.45998 5.82 1.58998 5.82 1.76998C5.82 1.90998 5.8 2.05998 5.76 2.21999C5.74 2.35998 5.73 2.51998 5.73 2.69998L5.67 4.31999C5.59 5.95999 5.55 7.18999 5.55 8.00998L5.61 12.54C5.63 13.26 5.64 14 5.64 14.76L5.58 18.03L5.55 18.63L5.58 19.47L5.64 20.52L9.93 20.67L13.5 20.7H13.56C13.68 20.7 13.75 20.72 13.77 20.76C13.79 20.8 13.79 20.86 13.77 20.94C13.77 21 13.77 21.05 13.77 21.09C13.75 21.17 13.75 21.32 13.77 21.54C13.81 21.76 13.83 21.96 13.83 22.14C13.83 22.28 13.78 22.37 13.68 22.41C13.58 22.45 13.45 22.46 13.29 22.44C13.15 22.44 13.04 22.44 12.96 22.44L11.37 22.35C9.97 22.23 8.98 22.17 8.4 22.17C7.76 22.17 6.14 22.23 3.54 22.35L0.81 22.44Z" fill="#1E5FD6"/>
</svg>
