<?xml version="1.0" encoding="UTF-8"?>
<svg id="Layer_1" xmlns="http://www.w3.org/2000/svg" version="1.1" viewBox="0 0 36.02 10.51">
  <!-- Generator: Adobe Illustrator 30.1.0, SVG Export Plug-In . SVG Version: 2.1.1 Build 136)  -->
  <defs>
    <style>
      .st0 {
        fill: #04389e;
      }
    </style>
  </defs>
  <path class="st0" d="M33.07,9.32c-.1,0-.17-.04-.17-.14v-2.97l.07-3.07c0-.07,0-.11.07-.14h.67s.03,0,.03.04v.47l.44-.18c.67-.33,1.05-.47,1.15-.47h0s.07.07.1.18v.83h0v.07l-.07.07c-.2.07-.44.11-.71.14-.24,0-.37.04-.44.07l-.57.07v4.3c0,.36,0,.58-.03.69,0,.04-.07.07-.17.07h-.44l.07-.04Z"/>
  <path class="st0" d="M30.91,9.39h-.1v-3.44c0-.22,0-.65.03-1.3,0-.76.03-1.16,0-1.23v-.36s.07-.07.1-.07h.44c.07,0,.1.04.1.14v.22c0,.14,0,.47-.03,1.01,0,.18,0,.58-.03,1.27v2.53c0,.54,0,.83.03.94v.22l-.07.04c-.07,0-.13.04-.27.04,0,0-.2,0-.2,0ZM31.25,2.59c-.13,0-.27-.07-.4-.18-.1-.11-.17-.25-.17-.43s.07-.29.17-.4c.1-.11.24-.18.37-.18s.3.04.44.14c.13.11.2.22.2.4s-.07.36-.2.51c-.13.11-.27.18-.4.18v-.04Z"/>
  <path class="st0" d="M27.1,9.53c-.98,0-1.59-.22-1.86-.61s-.4-.61-.4-.61c0-.04-.03-.07-.03-.11s0-.07.07-.14c.1-.14.2-.29.37-.47l.07-.04s.07,0,.1.07c.03.04.07.07.1.11.4.43.84.65,1.35.65s.47-.04.67-.14.27-.29.27-.58c0-.51-.37-1.01-1.11-1.59-.13-.07-.24-.14-.34-.22-.27-.18-.54-.33-.74-.51-.2-.14-.37-.36-.54-.61s-.24-.58-.24-.9.13-.83.37-1.16c.27-.36.57-.61.91-.8.37-.18.67-.29.94-.29.64,0,1.18.14,1.59.4.4.25.74.51.98.76,0,0,.03.07.03.11v.14s-.1.14-.17.29c-.07.11-.13.22-.17.29,0,0-.03.07-.07.11l-.07.07h-.07s-.03,0-.1-.07c-.03-.04-.1-.11-.13-.14-.27-.25-.54-.47-.78-.65-.27-.18-.51-.29-.74-.29s-.34.04-.47.14c-.13.07-.17.29-.17.61s.1.54.34.72.51.33.84.51c.03,0,.24.11.57.29.37.18.67.47.94.94.27.47.44,1.05.44,1.7s-.24,1.23-.74,1.55c-.47.36-1.15.51-2.02.51v-.04Z"/>
  <path class="st0" d="M19.24,9.43c-.98,0-1.62-.33-1.99-.94-.37-.61-.54-1.45-.54-2.5s.1-1.05.3-1.55c.2-.51.51-.87.88-1.19.37-.29.78-.43,1.21-.43s.98.18,1.32.58.57.9.71,1.48c.13.58.2,1.23.2,1.88,0,.04,0,.07-.07.11s-.13,0-.24,0h-3.68c.03.65.2,1.16.51,1.48s.74.51,1.32.51.61-.07.91-.25.51-.4.64-.69h0s.07,0,.13.07c.07.04.1.07.13.11.07.04.13.07.17.11.03,0,.07.07.07.11-.2.29-.47.54-.84.8-.37.22-.74.33-1.15.33ZM19.51,6.21h.54c.17,0,.4,0,.67-.07-.07-.72-.24-1.37-.47-1.92s-.54-.8-.91-.8-.64.11-.91.36-.51.58-.71.98c-.17.43-.3.9-.3,1.41h2.13l-.03.04Z"/>
  <path class="st0" d="M15.32,9.35c-.34,0-.57-.04-.74-.11-.17-.07-.27-.22-.3-.36-.03-.14-.07-.36-.07-.61V1.4c0-.07.07-.11.13-.11h1.05c.07,0,.13,0,.17.04.03,0,.07.07.07.14v.25c-.07.54-.1,1.19-.07,1.99v4.74c0,.11.07.14.24.14h.27c.07,0,.1.04.13.14,0,.11.07.18.1.29h0s0,.07-.07.11c-.13.14-.27.22-.4.25-.13,0-.34.04-.57.04l.07-.07Z"/>
  <path class="st0" d="M12.45,9.35c-.27,0-.47-.04-.61-.14-.13-.07-.24-.22-.27-.36-.03-.14-.07-.36-.07-.65v-.69l.07-1.27v-2.53c-.34,0-.51-.07-.54-.18v-.58h.54v-1.3c0-.07.07-.11.13-.11h.27c.13,0,.2.07.2.18v.25c-.03.25-.07.54-.07.9h.98c.07,0,.1.04.13.14.03.11.07.18.07.29s0,.22-.1.25c-.13.04-.27.07-.47.07s-.37,0-.61-.04v3c0,.29-.03.58-.03.87v.22c0,.22.03.4.13.51.1.11.24.14.37.14h.61c.07,0,.1.14.1.43v.18c.07.04.07.07,0,.07-.2.07-.37.14-.47.14h-.47l.1.18Z"/>
  <path class="st0" d="M9.28,9.35c-.34,0-.57-.04-.74-.11-.17-.07-.27-.22-.3-.36s-.07-.36-.07-.61V3.5h-.44v-.4h.47v-1.3c.03-.07.07-.11.13-.11h1.05c.07,0,.13,0,.17.04.03,0,.03.07.03.14v.25s0,.14-.03.29c0,.14,0,.36-.03.61h.84c.1,0,.13,0,.13.07v.22s0,.07,0,.04h0v.07h-.27c-.24,0-.47.04-.71.04h0v4.23c0,.14,0,.25.03.33.03.07.1.07.17.07h.51s.07,0,.07.11.03.11.03.14l.07.33c0,.11.07.22.1.29h0s0,.07-.07.11c-.17.11-.37.22-.54.25-.17,0-.44.04-.74.04h.13Z"/>
  <path class="st0" d="M6.14,9.39h-.1v-3.44c0-.22,0-.65.03-1.3,0-.76.03-1.16,0-1.23v-.36s.07-.07.1-.07h.44c.07,0,.1.04.1.14v.22c0,.14,0,.47-.03,1.01,0,.18,0,.58-.03,1.27v2.53c0,.54,0,.83.03.94v.22l-.07.04c-.07,0-.13.04-.27.04,0,0-.2,0-.2,0ZM6.48,2.59c-.13,0-.27-.07-.4-.18-.1-.11-.17-.25-.17-.43s.03-.29.13-.4c.1-.11.24-.18.37-.18s.34.04.47.14c.13.11.2.22.2.4s-.07.36-.2.51c-.13.11-.27.18-.4.18v-.04Z"/>
  <path class="st0" d="M1.05,9.39c-.13,0-.24-.07-.24-.22v-4.48c.03-.29,0-.76,0-1.48v-1.34c-.03-.11,0-.18.1-.18h.37c.2,0,.4.04.67.04h.71s.07.07.07.14v.94c-.03.58-.07,1.05-.07,1.34v4.52h1.45s1.21.07,1.21.07h.07v.07h0v.43q0,.07-.03.11h-.78c-.47-.07-.81-.11-1.01-.11s-.78,0-1.65.07h-.88v.07Z"/>
</svg>