<?xml version="1.0" encoding="UTF-8"?>
<svg id="Layer_1" xmlns="http://www.w3.org/2000/svg" version="1.1" viewBox="0 0 104 23">
  <!-- Generator: Adobe Illustrator 29.8.4, SVG Export Plug-In . SVG Version: 2.1.1 Build 6)  -->
  <defs>
    <style>
      .st0 {
        fill: #1e5fd6;
      }
    </style>
  </defs>
  <path class="st0" d="M95.7,22.2c-.3,0-.5-.1-.5-.4v-8.2l.2-8.5c0-.2,0-.3.2-.4,0,0,.3,0,.7,0,.8,0,1.2,0,1.3,0,0,0,.1,0,.1.1,0,0,0,.1,0,.2v1.1s1.3-.5,1.3-.5c2-.9,3.1-1.3,3.4-1.3h0c.1,0,.2.2.3.5,0,.4,0,.8,0,1,0,.2,0,.4,0,.6v.7s0,0,0,0c0,0,0,.2,0,.2,0,0-.1.1-.2.2-.6.2-1.3.3-2.1.4-.7,0-1.1.1-1.3.2l-1.7.2v7.1c0,.6,0,1.1,0,1.5,0,.7,0,1.4,0,2.3v1c0,1,0,1.6-.1,1.9,0,.1-.2.2-.5.2h-1.3Z"/>
  <path class="st0" d="M89.3,22.4c-.2,0-.3,0-.3,0,0,0,0,0,0-.2v-.3c0-.1,0-.3,0-.5v-3.3s0-5.2,0-5.2c0-.6,0-1.8.1-3.6,0-2.1.1-3.2,0-3.4v-.5c0-.2,0-.4,0-.5,0-.1.2-.2.3-.2h1.3c.2,0,.3.1.3.4s0,.2,0,.3c0,0,0,.2,0,.3,0,.4,0,1.3-.1,2.8,0,.5,0,1.6-.1,3.5,0,.6,0,1.2,0,1.8,0,.6,0,1.1,0,1.5,0,1,0,2.2,0,3.7,0,1.5,0,2.3.1,2.6,0,0,0,.2,0,.3s0,.2,0,.3c0,0,0,0-.2.1-.2,0-.4.1-.8.1h-.6ZM90.3,3.6c-.4,0-.8-.2-1.2-.5-.3-.3-.5-.7-.5-1.2s.2-.8.5-1.1c.3-.3.7-.5,1.1-.5s.9.1,1.3.4c.4.3.6.6.6,1.1s-.2,1-.6,1.4c-.4.3-.8.5-1.2.5Z"/>
  <path class="st0" d="M78,22.8c-2.9,0-4.7-.6-5.5-1.7-.8-1.1-1.2-1.7-1.2-1.7,0-.1-.1-.2-.1-.3s0-.2.2-.4c.3-.4.6-.8,1.1-1.3,0,0,.2-.1.2-.1s.2,0,.3.2c.1.1.2.2.3.3,1.2,1.2,2.5,1.8,4,1.8s1.4-.1,2-.4c.6-.3.8-.8.8-1.6,0-1.4-1.1-2.8-3.3-4.4-.4-.2-.7-.4-1-.6-.8-.5-1.6-.9-2.2-1.4-.6-.4-1.1-1-1.6-1.7-.5-.7-.7-1.6-.7-2.5s.4-2.3,1.1-3.2c.8-1,1.7-1.7,2.7-2.2,1.1-.5,2-.8,2.8-.8,1.9,0,3.5.4,4.7,1.1,1.2.7,2.2,1.4,2.9,2.1,0,0,.1.2.1.3s0,.1,0,.2c0,0,0,.1,0,.2,0,.1-.3.4-.5.8-.2.3-.4.6-.5.8,0,0-.1.2-.2.3,0,0-.1.1-.2.2,0,0-.1,0-.2,0s-.1,0-.3-.2c-.1-.1-.3-.3-.4-.4-.8-.7-1.6-1.3-2.3-1.8-.8-.5-1.5-.8-2.2-.8s-1,.1-1.4.4c-.4.2-.5.8-.5,1.7s.3,1.5,1,2,1.5.9,2.5,1.4c.1,0,.7.3,1.7.8,1.1.5,2,1.3,2.8,2.6.8,1.3,1.3,2.9,1.3,4.7s-.7,3.4-2.2,4.3c-1.4,1-3.4,1.4-6,1.4Z"/>
  <path class="st0" d="M54.7,22.5c-2.9,0-4.8-.9-5.9-2.6-1.1-1.7-1.6-4-1.6-6.9s.3-2.9.9-4.3c.6-1.4,1.5-2.4,2.6-3.3,1.1-.8,2.3-1.2,3.6-1.2s2.9.5,3.9,1.6,1.7,2.5,2.1,4.1c.4,1.6.6,3.4.6,5.2,0,.1,0,.2-.2.3s-.4,0-.7,0c-.6,0-1.2,0-1.6,0-.7,0-1.5,0-2.6,0h-.8s-1,0-1,0c-1.4,0-2.3,0-2.8,0-1,0-1.7,0-2.1,0,.1,1.8.6,3.2,1.5,4.1.9.9,2.2,1.4,3.9,1.4s1.8-.2,2.7-.7c.9-.5,1.5-1.1,1.9-1.9,0,0,0,0,0,0,0,0,.2,0,.4.2.2.1.3.2.4.3.2.1.4.2.5.3.1,0,.2.2.2.3-.6.8-1.4,1.5-2.5,2.2-1.1.6-2.2.9-3.4.9ZM55.5,13.6c.5,0,1.1,0,1.6,0,.5,0,1.2,0,2-.2-.2-2-.7-3.8-1.4-5.3-.7-1.5-1.6-2.2-2.7-2.2s-1.9.3-2.7,1c-.8.7-1.5,1.6-2.1,2.7-.5,1.2-.9,2.5-.9,3.9.1,0,.3,0,.6,0,.2,0,.6,0,1,0h4.7Z"/>
  <path class="st0" d="M43.1,22.3c-1,0-1.7-.1-2.2-.3-.5-.2-.8-.6-.9-1-.1-.4-.2-1-.2-1.7v-1.9c0-.3,0-.9,0-1.7v-3.5c0-.3,0-.6,0-1v-5.8c0-.7,0-1.3,0-1.7v-1.1s0-1.3,0-1.3c0-.5,0-.8,0-1,0-.2.2-.3.4-.3s.2,0,.2,0c.2,0,.3,0,.5,0,.2,0,.4,0,.5,0h.8c.5,0,.9,0,1.1,0,.2,0,.4,0,.5.1.1,0,.2.2.2.4s0,.3,0,.7c-.2,1.5-.3,3.3-.2,5.5,0,.4,0,.7,0,.9,0,.3,0,.5,0,.7v.8c0,.5,0,1.2,0,2.1v2.6s0,1.9,0,1.9c0,.5,0,1,0,1.7,0,.6,0,1.2,0,1.8v.6c0,.3.2.4.7.4s.4,0,.5,0c.2,0,.3,0,.3,0,.2,0,.3.1.4.4,0,.3.2.5.3.8,0,0,0,0,0,0,0,0,0,.2-.2.3-.4.4-.8.6-1.2.7-.4,0-1,.1-1.7.1Z"/>
  <path class="st0" d="M34.6,22.3c-.8,0-1.4-.1-1.8-.4-.4-.2-.7-.6-.8-1-.1-.4-.2-1-.2-1.8v-1.9s.2-3.5.2-3.5v-2.6c0,0,0-4.4,0-4.4-1,0-1.5-.2-1.6-.5,0-.2,0-.3,0-.5s0-.4,0-.6c0-.2,0-.4,0-.5.4,0,.9,0,1.6,0h0c0-.1,0-1.3,0-1.3v-1.3c0-.5,0-.8,0-1,0-.2.2-.3.4-.3s.2,0,.2,0h.3c0,0,.2,0,.3,0,.4,0,.6.2.6.5s0,.3,0,.7c-.1.7-.2,1.5-.2,2.5h2.9c.2,0,.3.1.4.4.1.3.2.5.2.8s0,.6-.3.7c-.4.1-.8.2-1.4.2s-1.1,0-1.8-.1v8.3c0,.8-.1,1.6-.1,2.4v.6c0,.6.1,1.1.4,1.4.3.3.7.4,1.1.4s.8,0,1.1,0c.3,0,.5,0,.7,0,.2,0,.3.4.3,1.2v.5c.2.1.2.2,0,.2-.6.2-1.1.4-1.4.4-.3,0-.8,0-1.4,0Z"/>
  <path class="st0" d="M25.2,22.3c-1,0-1.7-.1-2.2-.3-.5-.2-.8-.6-.9-1-.1-.4-.2-1-.2-1.7v-1.9c0-.3,0-.9,0-1.7v-3.5c0-.3,0-.6,0-1,0-.4,0-.8,0-1.3,0-.5,0-.9,0-1.3v-2.5h-1.1c0,0-.2,0-.2,0,0,0,0,0,0,0,0-.2,0-.3,0-.6s0-.3,0-.5h1.4v-.2s0-1.1,0-1.1v-1.3c0-.5,0-.8,0-1,.1-.2.2-.3.4-.3s.2,0,.2,0c.2,0,.3,0,.5,0,.2,0,.4,0,.5,0h.8c.5,0,.9,0,1.1,0,.2,0,.4,0,.5.1.1,0,.1.2.1.4s0,.3,0,.7c0,.1,0,.4-.1.8,0,.4,0,1-.1,1.7h2.3s.2,0,.2,0c.3,0,.4,0,.4.2v.6c0,.1,0,.2,0,.1,0,0,0,0,0,0s0,.2,0,.2c0,0,0,0-.1,0h-.7c-.7,0-1.4.1-2.1.1h0v3c0,.5,0,1.2,0,2.1v2.6s0,1.2,0,1.2c0,1.4,0,2.2,0,2.2v.6c0,.4,0,.7.1.9.1.2.3.2.5.2.5,0,.9,0,1,0,.2,0,.4,0,.5,0s.2,0,.2.3.1.3.1.4l.2.9c0,.3.2.6.3.8,0,0,0,0,0,0,0,0,0,.2-.2.3-.5.3-1.1.6-1.6.7-.5,0-1.3.1-2.2.1Z"/>
  <path class="st0" d="M15.9,22.4c-.2,0-.3,0-.3,0,0,0,0,0,0-.2v-.3c0-.1,0-.3,0-.5v-3.3s0-5.2,0-5.2c0-.6,0-1.8.1-3.6,0-2.1.1-3.2,0-3.4v-.5c0-.2,0-.4,0-.5,0-.1.2-.2.3-.2h1.3c.2,0,.3.1.3.4s0,.2,0,.3c0,0,0,.2,0,.3,0,.4,0,1.3-.1,2.8,0,.5,0,1.6-.1,3.5,0,.6,0,1.2,0,1.8,0,.6,0,1.1,0,1.5,0,1,0,2.2,0,3.7,0,1.5,0,2.3.1,2.6,0,0,0,.2,0,.3s0,.2,0,.3c0,0,0,0-.2.1-.2,0-.4.1-.8.1h-.6ZM16.9,3.6c-.4,0-.8-.2-1.2-.5-.3-.3-.5-.7-.5-1.2s.1-.8.4-1.1c.3-.3.7-.5,1.1-.5s1,.1,1.4.4c.4.3.6.6.6,1.1s-.2,1-.6,1.4c-.4.3-.8.5-1.2.5Z"/>
  <path class="st0" d="M.8,22.4c-.4,0-.7-.2-.7-.6v-12.4c.1-.8,0-2.1,0-4.1V1.6c-.1-.3,0-.5.3-.5s.3,0,.5,0c.2,0,.4,0,.6,0,.6,0,1.2.1,2,.1s1.1,0,1.5,0c.3,0,.5,0,.6,0,.1,0,.2.2.2.4s0,.3,0,.5c0,.1,0,.3,0,.5v1.6c-.1,1.6-.2,2.9-.2,3.7v4.5c0,.7,0,1.5,0,2.2v3.3c0,0,0,.6,0,.6v.8s0,1.1,0,1.1h4.3c0,.1,3.6.2,3.6.2h0c.1,0,.2,0,.2,0s0,.1,0,.2h0c0,.2,0,.4,0,.6,0,.2,0,.4,0,.6s0,.2-.1.3c-.1,0-.2,0-.4,0h-1.9c-1.4-.2-2.4-.3-3-.3s-2.3,0-4.9.2H.8Z"/>
</svg>