<svg width="241" height="54" viewBox="0 0 241 54" fill="none" xmlns="http://www.w3.org/2000/svg">
<path d="M1.89003 52.36C0.86336 52.36 0.350027 51.8934 0.350027 50.96V45.5L0.630027 22.05C0.630027 20.2767 0.51336 17.0567 0.280027 12.39L2.69264e-05 3.78005C2.69264e-05 2.98671 0.30336 2.59005 0.910027 2.59005C1.14336 2.59005 1.54003 2.66005 2.10003 2.80005C2.66003 2.94005 3.10336 3.01005 3.43003 3.01005C4.73669 3.19671 6.30003 3.29005 8.12003 3.29005C9.38003 3.29005 10.57 3.22005 11.69 3.08005C12.39 2.98671 12.88 3.03338 13.16 3.22005C13.44 3.40671 13.58 3.71004 13.58 4.13005C13.58 4.45671 13.5334 4.80671 13.44 5.18005C13.3934 5.50671 13.37 5.88005 13.37 6.30005L13.23 10.08C13.0434 13.9067 12.95 16.7767 12.95 18.69L13.09 29.26C13.1367 30.94 13.16 32.6667 13.16 34.44L13.02 42.07L12.95 43.47L13.02 45.43L13.16 47.88L23.17 48.23L31.5 48.3H31.64C31.92 48.3 32.0834 48.3467 32.13 48.44C32.1767 48.5334 32.1767 48.6734 32.13 48.86C32.13 49 32.13 49.1167 32.13 49.21C32.0834 49.3967 32.0834 49.7467 32.13 50.26C32.2234 50.7734 32.27 51.24 32.27 51.66C32.27 51.9867 32.1534 52.1967 31.92 52.29C31.6867 52.3834 31.3834 52.4067 31.01 52.36C30.6834 52.36 30.4267 52.36 30.24 52.36L26.53 52.15C23.2634 51.87 20.9534 51.73 19.6 51.73C18.1067 51.73 14.3267 51.87 8.26003 52.15L1.89003 52.36ZM37.059 52.36C36.6857 52.36 36.4523 52.3134 36.359 52.22C36.2657 52.1734 36.219 52.0334 36.219 51.8C36.219 51.66 36.219 51.45 36.219 51.17C36.2657 50.8434 36.289 50.4234 36.289 49.91L36.359 42.28L36.499 30.1C36.499 28.7934 36.5923 25.9934 36.779 21.7C36.9657 16.8934 37.0357 14.2567 36.989 13.79L36.919 12.6C36.919 12.0867 36.989 11.7134 37.129 11.48C37.269 11.2 37.5257 11.06 37.899 11.06L40.839 11.13C41.259 11.13 41.469 11.3867 41.469 11.9C41.469 12.1334 41.4457 12.3667 41.399 12.6C41.3523 12.8334 41.329 13.0667 41.329 13.3C41.2357 14.28 41.1423 16.4267 41.049 19.74C41.049 20.8134 40.9557 23.5434 40.769 27.93C40.7223 29.3767 40.6757 30.8 40.629 32.2C40.5823 33.5534 40.559 34.7434 40.559 35.77C40.559 38.01 40.5823 40.8567 40.629 44.31C40.7223 47.7167 40.8157 49.7467 40.909 50.4C40.9557 50.5867 40.979 50.8434 40.979 51.17C40.979 51.4967 40.9323 51.7067 40.839 51.8C40.7923 51.94 40.629 52.0334 40.349 52.08C39.9757 52.2667 39.369 52.36 38.529 52.36C37.7357 52.36 37.2457 52.36 37.059 52.36ZM39.369 8.47005C38.389 8.47005 37.479 8.09671 36.639 7.35005C35.8457 6.60338 35.449 5.67005 35.449 4.55005C35.449 3.57005 35.799 2.70671 36.499 1.96005C37.2457 1.16671 38.109 0.770047 39.089 0.770047C40.2557 0.770047 41.3057 1.07338 42.239 1.68005C43.1723 2.28671 43.639 3.12671 43.639 4.20005C43.639 5.50671 43.1723 6.55671 42.239 7.35005C41.3057 8.09671 40.349 8.47005 39.369 8.47005ZM58.8427 52.08C56.6027 52.08 54.9227 51.8234 53.8027 51.31C52.7294 50.75 52.006 49.98 51.6327 49C51.306 47.9734 51.1427 46.62 51.1427 44.94L51.2127 40.46C51.2593 39.6667 51.2827 38.3367 51.2827 36.47L51.2127 28.28C51.166 27.58 51.1427 26.8334 51.1427 26.04C51.096 25.1534 51.0727 24.1734 51.0727 23.1C51.1194 21.98 51.1427 20.9534 51.1427 20.02V16.24V14.07H48.4827C48.2493 14.07 48.086 14.0234 47.9927 13.93C47.8993 13.8367 47.8527 13.7667 47.8527 13.72C47.806 13.3467 47.7827 12.9034 47.7827 12.39C47.7827 12.0167 47.8293 11.5967 47.9227 11.13H51.1427L51.2127 10.64L51.2827 7.98005V4.97005C51.236 3.85005 51.306 3.10338 51.4927 2.73005C51.726 2.31005 52.0527 2.10005 52.4727 2.10005C52.706 2.10005 52.8927 2.12338 53.0327 2.17005C53.406 2.21671 53.8027 2.24005 54.2227 2.24005C54.6894 2.19338 55.1094 2.17005 55.4827 2.17005H57.2327C58.446 2.17005 59.286 2.19338 59.7527 2.24005C60.266 2.28671 60.616 2.40338 60.8027 2.59005C61.036 2.77671 61.1527 3.05671 61.1527 3.43005C61.1527 3.57005 61.106 4.10671 61.0127 5.04005C60.966 5.32005 60.8727 5.97338 60.7327 7.00005C60.6394 7.98005 60.546 9.31005 60.4527 10.99L65.7727 11.06H66.1227C66.776 11.06 67.126 11.2 67.1727 11.48L67.3127 12.81C67.3594 13.1367 67.3827 13.23 67.3827 13.09C67.4294 12.95 67.4527 12.9967 67.4527 13.23C67.4527 13.4167 67.3827 13.58 67.2427 13.72C67.1494 13.86 67.0327 13.93 66.8927 13.93L65.2827 14C63.7427 14.14 62.1327 14.21 60.4527 14.21V14.49V16.66V21.28C60.4994 22.4467 60.5227 24.08 60.5227 26.18L60.4527 32.34L60.5927 35.14C60.7327 38.5 60.8027 40.2034 60.8027 40.25V41.65C60.8027 42.5834 60.9194 43.26 61.1527 43.68C61.4327 44.0534 61.8294 44.24 62.3427 44.24C63.5094 44.24 64.326 44.2167 64.7927 44.17C65.2594 44.0767 65.656 44.03 65.9827 44.03C66.1694 44.03 66.3327 44.24 66.4727 44.66C66.6127 45.08 66.706 45.4067 66.7527 45.64L67.3127 47.67C67.4994 48.37 67.7327 48.9534 68.0127 49.42C68.0594 49.4667 68.0827 49.5367 68.0827 49.63C68.0827 49.8167 67.966 50.0267 67.7327 50.26C66.4727 51.0534 65.2127 51.5667 63.9527 51.8C62.6927 51.9867 60.9894 52.08 58.8427 52.08ZM80.7483 52.08C78.8816 52.08 77.4816 51.8 76.5483 51.24C75.615 50.68 75.0083 49.91 74.7283 48.93C74.4483 47.9034 74.3083 46.5267 74.3083 44.8L74.3783 40.46L74.7283 32.2L74.9383 26.04V15.82C72.6983 15.82 71.415 15.4467 71.0883 14.7C70.9483 14.3267 70.8783 13.93 70.8783 13.51C70.8783 13.0434 70.9016 12.6 70.9483 12.18C71.0416 11.76 71.0883 11.3634 71.0883 10.99C71.9283 11.0367 73.2116 11.06 74.9383 11.06L75.0083 10.78L75.0783 8.12005V5.11004C75.0316 3.99005 75.1016 3.24338 75.2883 2.87004C75.5216 2.45005 75.8483 2.24005 76.2683 2.24005C76.5016 2.24005 76.6883 2.26338 76.8283 2.31005H76.9683C77.0616 2.31005 77.225 2.31005 77.4583 2.31005C77.6916 2.26338 77.9016 2.28671 78.0883 2.38005C79.0216 2.52005 79.4883 2.91671 79.4883 3.57005C79.4883 3.71005 79.4416 4.24671 79.3483 5.18005C79.115 6.81338 78.9516 8.77338 78.8583 11.06H85.5783C85.9516 11.06 86.255 11.3867 86.4883 12.04C86.7216 12.6467 86.8383 13.3 86.8383 14C86.8383 14.9334 86.6283 15.47 86.2083 15.61C85.3216 15.89 84.2483 16.03 82.9883 16.03C81.8683 16.03 80.4683 15.9367 78.7883 15.75V32.34L78.7183 35.14C78.5783 36.96 78.5083 38.85 78.5083 40.81V42.21C78.5083 43.7034 78.835 44.8234 79.4883 45.57C80.1416 46.27 81.005 46.62 82.0783 46.62C83.105 46.62 83.9916 46.5967 84.7383 46.55C85.485 46.4567 86.0216 46.41 86.3483 46.41C86.8616 46.41 87.1183 47.32 87.1183 49.14L87.3983 50.26C87.5383 50.5867 87.515 50.7734 87.3283 50.82C85.835 51.38 84.715 51.73 83.9683 51.87C83.2683 52.01 82.195 52.08 80.7483 52.08ZM100.521 52.08C98.2806 52.08 96.6006 51.8234 95.4806 51.31C94.4072 50.75 93.6839 49.98 93.3106 49C92.9839 47.9734 92.8206 46.62 92.8206 44.94L92.8906 40.46C92.9372 39.6667 92.9606 38.3367 92.9606 36.47L92.8906 28.28C92.8439 27.58 92.8206 26.8334 92.8206 26.04V23.94V15.26V12.46C92.8206 10.78 92.8439 9.47338 92.8906 8.54005L92.9606 5.88005V2.87004C92.9139 1.75005 92.9839 1.00338 93.1706 0.630048C93.4039 0.210048 93.7306 4.81606e-05 94.1506 4.81606e-05C94.3839 4.81606e-05 94.5706 0.0233812 94.7106 0.0700473C95.0839 0.116713 95.4806 0.140046 95.9006 0.140046C96.3672 0.0933803 96.7872 0.0700473 97.1606 0.0700473H98.9106C100.124 0.0700473 100.964 0.0933803 101.431 0.140046C101.944 0.186712 102.294 0.303379 102.481 0.490046C102.714 0.676713 102.831 0.956714 102.831 1.33005C102.831 1.47005 102.784 2.00671 102.691 2.94005C102.271 6.34672 102.084 10.5934 102.131 15.68C102.084 16.52 102.061 17.2434 102.061 17.85C102.107 18.4567 102.131 18.97 102.131 19.39V21.28C102.177 22.4467 102.201 24.08 102.201 26.18L102.131 32.34L102.271 36.82C102.317 37.94 102.364 39.2234 102.411 40.67C102.457 42.1167 102.481 43.4934 102.481 44.8V46.2C102.481 46.8067 102.994 47.11 104.021 47.11C104.487 47.11 104.884 47.04 105.211 46.9C105.584 46.76 105.841 46.69 105.981 46.69C106.354 46.69 106.657 47.0167 106.891 47.67C107.077 48.37 107.311 48.9534 107.591 49.42C107.637 49.4667 107.661 49.5367 107.661 49.63C107.661 49.8167 107.544 50.0267 107.311 50.26C106.377 51.1 105.444 51.6134 104.511 51.8C103.577 51.9867 102.247 52.08 100.521 52.08ZM127.724 52.57C121.051 52.57 116.478 50.5634 114.004 46.55C111.531 42.5367 110.294 37.1467 110.294 30.38C110.294 26.88 111.018 23.5667 112.464 20.44C113.958 17.2667 115.964 14.7234 118.484 12.81C121.051 10.8967 123.874 9.94005 126.954 9.94005C130.688 9.94005 133.698 11.2 135.984 13.72C138.271 16.24 139.881 19.4367 140.814 23.31C141.794 27.1367 142.284 31.1734 142.284 35.42C142.331 35.7467 142.214 35.9567 141.934 36.05C141.654 36.1434 141.094 36.19 140.254 36.19C138.761 36.0967 137.548 36.05 136.614 36.05C135.074 36.05 133.044 36.0967 130.524 36.19L128.704 36.26H126.324C123.011 36.26 120.864 36.2367 119.884 36.19C117.644 36.19 116.011 36.1667 114.984 36.12C115.264 40.32 116.408 43.4934 118.414 45.64C120.468 47.74 123.478 48.79 127.444 48.79C129.544 48.79 131.621 48.23 133.674 47.11C135.728 45.9434 137.198 44.4967 138.084 42.77C138.131 42.7234 138.201 42.7 138.294 42.7C138.528 42.7 138.808 42.8634 139.134 43.19C139.508 43.47 139.788 43.68 139.974 43.82C140.488 44.1467 140.861 44.4034 141.094 44.59C141.328 44.7767 141.468 45.0334 141.514 45.36C140.208 47.2734 138.271 48.9534 135.704 50.4C133.184 51.8467 130.524 52.57 127.724 52.57ZM129.544 31.85C130.804 31.85 132.041 31.8267 133.254 31.78C134.514 31.6867 136.054 31.5467 137.874 31.36C137.361 26.6 136.264 22.4934 134.584 19.04C132.951 15.5867 130.828 13.86 128.214 13.86C125.974 13.86 123.874 14.6534 121.914 16.24C119.954 17.78 118.344 19.9034 117.084 22.61C115.824 25.3167 115.101 28.35 114.914 31.71C115.241 31.71 115.684 31.7334 116.244 31.78C116.804 31.78 117.598 31.7567 118.624 31.71L129.544 31.85ZM181.894 53.27C175.174 53.27 170.904 51.9867 169.084 49.42C167.264 46.8067 166.307 45.4534 166.214 45.36C166.027 45.1267 165.934 44.8934 165.934 44.66C165.934 44.52 166.121 44.2167 166.494 43.75C167.101 42.91 167.987 41.9067 169.154 40.74C169.341 40.5534 169.527 40.46 169.714 40.46C169.947 40.46 170.204 40.6467 170.484 41.02C170.764 41.3467 170.997 41.6034 171.184 41.79C173.937 44.5434 177.064 45.92 180.564 45.92C182.337 45.92 183.877 45.5934 185.184 44.94C186.491 44.24 187.144 42.9567 187.144 41.09C187.144 37.87 184.601 34.44 179.514 30.8C178.674 30.24 177.881 29.7734 177.134 29.4C175.174 28.3267 173.494 27.2767 172.094 26.25C170.694 25.2234 169.457 23.87 168.384 22.19C167.311 20.51 166.774 18.55 166.774 16.31C166.774 13.51 167.637 10.99 169.364 8.75005C171.137 6.51005 173.237 4.76005 175.664 3.50004C178.137 2.24005 180.284 1.61005 182.104 1.61005C186.537 1.61005 190.177 2.49671 193.024 4.27005C195.917 5.99671 198.157 7.65338 199.744 9.24005C199.931 9.42671 200.024 9.63671 200.024 9.87005C200.024 10.01 199.954 10.1967 199.814 10.43C199.721 10.6167 199.651 10.7567 199.604 10.85C199.371 11.1767 198.974 11.76 198.414 12.6C197.901 13.3934 197.481 13.9767 197.154 14.35C197.014 14.5367 196.851 14.7467 196.664 14.98C196.524 15.1667 196.384 15.3067 196.244 15.4C196.151 15.4934 195.987 15.54 195.754 15.54C195.661 15.54 195.427 15.4 195.054 15.12C194.727 14.7934 194.401 14.5134 194.074 14.28C192.207 12.6467 190.387 11.2467 188.614 10.08C186.841 8.91338 185.137 8.33005 183.504 8.33005C182.197 8.33005 181.124 8.63338 180.284 9.24005C179.444 9.80005 179.024 11.1067 179.024 13.16C179.024 15.1667 179.771 16.73 181.264 17.85C182.757 18.97 184.741 20.0434 187.214 21.07C187.447 21.1634 188.801 21.7467 191.274 22.82C193.794 23.8934 196.011 25.9467 197.924 28.98C199.884 32.0134 200.864 35.63 200.864 39.83C200.864 44.31 199.184 47.67 195.824 49.91C192.464 52.15 187.821 53.27 181.894 53.27ZM208.436 52.36C208.063 52.36 207.829 52.3134 207.736 52.22C207.643 52.1734 207.596 52.0334 207.596 51.8C207.596 51.66 207.596 51.45 207.596 51.17C207.643 50.8434 207.666 50.4234 207.666 49.91L207.736 42.28L207.876 30.1C207.876 28.7934 207.969 25.9934 208.156 21.7C208.343 16.8934 208.413 14.2567 208.366 13.79L208.296 12.6C208.296 12.0867 208.366 11.7134 208.506 11.48C208.646 11.2 208.903 11.06 209.276 11.06L212.216 11.13C212.636 11.13 212.846 11.3867 212.846 11.9C212.846 12.1334 212.823 12.3667 212.776 12.6C212.729 12.8334 212.706 13.0667 212.706 13.3C212.613 14.28 212.519 16.4267 212.426 19.74C212.426 20.8134 212.333 23.5434 212.146 27.93C212.099 29.3767 212.053 30.8 212.006 32.2C211.959 33.5534 211.936 34.7434 211.936 35.77C211.936 38.01 211.959 40.8567 212.006 44.31C212.099 47.7167 212.193 49.7467 212.286 50.4C212.333 50.5867 212.356 50.8434 212.356 51.17C212.356 51.4967 212.309 51.7067 212.216 51.8C212.169 51.94 212.006 52.0334 211.726 52.08C211.353 52.2667 210.746 52.36 209.906 52.36C209.113 52.36 208.623 52.36 208.436 52.36ZM210.746 8.47005C209.766 8.47005 208.856 8.09671 208.016 7.35005C207.223 6.60338 206.826 5.67005 206.826 4.55005C206.826 3.57005 207.176 2.70671 207.876 1.96005C208.623 1.16671 209.486 0.770047 210.466 0.770047C211.633 0.770047 212.683 1.07338 213.616 1.68005C214.549 2.28671 215.016 3.12671 215.016 4.20005C215.016 5.50671 214.549 6.55671 213.616 7.35005C212.683 8.09671 211.726 8.47005 210.746 8.47005ZM223.36 51.8C222.66 51.8 222.31 51.52 222.31 50.96V37.59V31.71L222.8 11.83C222.8 11.3167 222.916 11.0367 223.15 10.99C223.336 10.8967 223.873 10.85 224.76 10.85C226.533 10.85 227.513 10.8967 227.7 10.99C227.84 10.99 227.956 11.0834 228.05 11.27C228.19 11.41 228.26 11.5267 228.26 11.62L228.19 14.07L231.27 12.81C235.89 10.8034 238.55 9.80005 239.25 9.80005H239.32C239.646 9.80005 239.903 10.22 240.09 11.06C240.09 12.0867 240.113 12.88 240.16 13.44C240.16 13.9534 240.206 14.4434 240.3 14.91L240.37 16.45V16.59C240.37 16.7767 240.3 16.9634 240.16 17.15C240.02 17.3367 239.903 17.4534 239.81 17.5C238.316 17.8734 236.706 18.1767 234.98 18.41C233.3 18.5967 232.32 18.7134 232.04 18.76L228.05 19.32V29.19V32.27L228.19 35.91C228.19 37.2634 228.166 38.4067 228.12 39.34C227.98 40.88 227.91 42.6534 227.91 44.66V47.04C227.91 49.3734 227.816 50.82 227.63 51.38C227.63 51.7067 227.256 51.87 226.51 51.87L223.36 51.8Z" fill="#04389E"/>
</svg>
