<?xml version="1.0" encoding="UTF-8"?>
<svg id="Layer_1" xmlns="http://www.w3.org/2000/svg" version="1.1" viewBox="0 0 40 18.4">
  <!-- Generator: Adobe Illustrator 29.8.4, SVG Export Plug-In . SVG Version: 2.1.1 Build 6)  -->
  <defs>
    <style>
      .st0 {
        fill: #04389e;
      }
    </style>
  </defs>
  <path class="st0" d="M36.6,13.1c-.1,0-.2,0-.2-.1v-6.2c0,0,0-.1.1-.1,0,0,.1,0,.3,0,.3,0,.4,0,.5,0,0,0,0,0,0,0,0,0,0,0,0,0v.4s.5-.2.5-.2c.7-.3,1.2-.5,1.3-.5h0c0,0,0,0,.1.2,0,.2,0,.3,0,.4,0,0,0,.2,0,.2v.2s0,0,0,0c0,0,0,0,0,0,0,0,0,0,0,0-.2,0-.5.1-.8.1-.3,0-.4,0-.5,0h-.6v2.7c0,.2,0,.4,0,.5,0,.2,0,.5,0,.8v.4c0,.4,0,.6,0,.7,0,0,0,0-.2,0h-.5Z"/>
  <path class="st0" d="M34.2,13.2c0,0,0,0-.1,0,0,0,0,0,0,0h0c0-.2,0-.2,0-.3v-1.2s0-1.9,0-1.9c0-.2,0-.6,0-1.3,0-.8,0-1.2,0-1.3v-.2c0,0,0-.1,0-.2,0,0,0,0,.1,0h.5c0,0,0,0,0,.1s0,0,0,.1c0,0,0,0,0,.1,0,.2,0,.5,0,1,0,.2,0,.6,0,1.3,0,.2,0,.5,0,.7,0,.2,0,.4,0,.6,0,.4,0,.8,0,1.4,0,.5,0,.9,0,1,0,0,0,0,0,.1s0,0,0,0c0,0,0,0,0,0,0,0-.2,0-.3,0h-.2ZM34.6,6.3c-.2,0-.3,0-.4-.2-.1-.1-.2-.3-.2-.4s0-.3.2-.4c.1-.1.3-.2.4-.2s.4,0,.5.1c.1,0,.2.2.2.4s0,.4-.2.5c-.1.1-.3.2-.5.2Z"/>
  <path class="st0" d="M30,13.4c-1.1,0-1.7-.2-2-.6-.3-.4-.4-.6-.5-.6,0,0,0,0,0-.1s0,0,0-.1c0-.1.2-.3.4-.5,0,0,0,0,0,0s0,0,.1,0c0,0,0,0,.1.1.4.4.9.7,1.5.7s.5,0,.7-.2c.2-.1.3-.3.3-.6,0-.5-.4-1.1-1.2-1.6-.1,0-.3-.2-.4-.2-.3-.2-.6-.3-.8-.5-.2-.2-.4-.4-.6-.6-.2-.3-.3-.6-.3-.9s.1-.8.4-1.2c.3-.4.6-.6,1-.8.4-.2.7-.3,1-.3.7,0,1.3.1,1.7.4.5.3.8.5,1.1.8,0,0,0,0,0,0s0,0,0,0c0,0,0,0,0,0,0,0,0,.1-.2.3,0,.1-.1.2-.2.3,0,0,0,0,0,0,0,0,0,0,0,0,0,0,0,0,0,0s0,0-.1,0c0,0-.1,0-.2-.1-.3-.3-.6-.5-.9-.7-.3-.2-.5-.3-.8-.3s-.4,0-.5.1c-.1,0-.2.3-.2.6s.1.6.4.7.5.3.9.5c0,0,.3.1.6.3.4.2.7.5,1.1,1,.3.5.5,1.1.5,1.7s-.3,1.2-.8,1.6c-.5.4-1.3.5-2.2.5Z"/>
  <path class="st0" d="M21.5,13.3c-1.1,0-1.8-.3-2.2-1-.4-.6-.6-1.5-.6-2.6s.1-1.1.3-1.6c.2-.5.6-.9,1-1.2.4-.3.9-.5,1.3-.5s1.1.2,1.4.6.6.9.8,1.5c.2.6.2,1.2.2,1.9,0,0,0,0,0,0s-.1,0-.3,0c-.2,0-.4,0-.6,0-.2,0-.6,0-1,0h-.3s-.4,0-.4,0c-.5,0-.9,0-1,0-.4,0-.6,0-.8,0,0,.7.2,1.2.5,1.5.3.3.8.5,1.4.5s.7,0,1-.3c.3-.2.6-.4.7-.7,0,0,0,0,0,0,0,0,0,0,.1,0,0,0,.1,0,.1,0,0,0,.1,0,.2.1,0,0,0,0,0,.1-.2.3-.5.6-.9.8-.4.2-.8.3-1.3.3ZM21.8,10c.2,0,.4,0,.6,0,.2,0,.4,0,.7,0,0-.8-.3-1.4-.5-1.9-.3-.5-.6-.8-1-.8s-.7.1-1,.4c-.3.2-.6.6-.8,1-.2.4-.3.9-.3,1.4,0,0,.1,0,.2,0,0,0,.2,0,.4,0h1.7Z"/>
  <path class="st0" d="M17.2,13.3c-.4,0-.6,0-.8-.1-.2,0-.3-.2-.3-.4,0-.2,0-.4,0-.6v-.7c0-.1,0-.3,0-.6v-1.3c0-.1,0-.2,0-.4v-2.1c0-.3,0-.5,0-.6v-.4s0-.5,0-.5c0-.2,0-.3,0-.4,0,0,0,0,.2,0s0,0,0,0c0,0,.1,0,.2,0,0,0,.1,0,.2,0h.3c.2,0,.3,0,.4,0,0,0,.1,0,.2,0,0,0,0,0,0,.1s0,.1,0,.3c0,.5,0,1.2,0,2,0,.1,0,.2,0,.3,0,0,0,.2,0,.2v.3c0,.2,0,.4,0,.8v1s0,.7,0,.7c0,.2,0,.4,0,.6,0,.2,0,.4,0,.7v.2c0,0,0,.1.2.1s.1,0,.2,0c0,0,0,0,.1,0,0,0,.1,0,.1.2,0,.1,0,.2.1.3,0,0,0,0,0,0,0,0,0,0,0,0-.1.1-.3.2-.4.2-.1,0-.4,0-.6,0Z"/>
  <path class="st0" d="M14,13.2c-.3,0-.5,0-.7-.1-.1,0-.2-.2-.3-.4,0-.2,0-.4,0-.7v-.7s0-1.3,0-1.3v-1s0-1.6,0-1.6c-.4,0-.6,0-.6-.2,0,0,0-.1,0-.2s0-.1,0-.2c0,0,0-.1,0-.2.1,0,.3,0,.6,0h0s0-.5,0-.5v-.5c0-.2,0-.3,0-.4,0,0,0,0,.2,0s0,0,0,0h0s0,0,0,0c.1,0,.2,0,.2.2s0,.1,0,.3c0,.3,0,.6,0,.9h1.1c0,0,.1,0,.1.2,0,0,0,.2,0,.3s0,.2,0,.3c-.1,0-.3,0-.5,0s-.4,0-.7,0v3.1c0,.3,0,.6,0,.9v.2c0,.2,0,.4.2.5.1.1.2.2.4.2s.3,0,.4,0c.1,0,.2,0,.3,0,0,0,.1.1.1.4v.2c0,0,0,0,0,0-.2,0-.4.1-.5.2-.1,0-.3,0-.5,0Z"/>
  <path class="st0" d="M10.6,13.2c-.4,0-.6,0-.8-.1-.2,0-.3-.2-.3-.4,0-.2,0-.4,0-.6v-.7c0-.1,0-.3,0-.6v-1.3c0-.1,0-.2,0-.4,0-.1,0-.3,0-.5,0-.2,0-.3,0-.5v-.9h-.4s0,0,0,0c0,0,0,0,0,0,0,0,0-.1,0-.2s0-.1,0-.2h.5c0,0,0-.5,0-.5v-.5c0-.2,0-.3,0-.4,0,0,0,0,.2,0s0,0,0,0c0,0,.1,0,.2,0,0,0,.1,0,.2,0h.3c.2,0,.3,0,.4,0,0,0,.1,0,.2,0,0,0,0,0,0,.1s0,.1,0,.3c0,0,0,.1,0,.3,0,.2,0,.4,0,.6h.8s0,0,0,0c.1,0,.2,0,.2,0v.2c0,0,0,0,0,0,0,0,0,0,0,0s0,0,0,0c0,0,0,0,0,0h-.3c-.2,0-.5,0-.8,0h0v1.1c0,.2,0,.4,0,.8v1s0,.4,0,.4c0,.5,0,.8,0,.8v.2c0,.1,0,.3,0,.3,0,0,.1,0,.2,0,.2,0,.3,0,.4,0,0,0,.1,0,.2,0s0,0,0,0,0,.1,0,.2v.3c.1.1.2.2.2.3,0,0,0,0,0,0,0,0,0,0,0,0-.2.1-.4.2-.6.2-.2,0-.5,0-.8,0Z"/>
  <path class="st0" d="M7.1,13.2c0,0,0,0-.1,0,0,0,0,0,0,0h0c0-.2,0-.2,0-.3v-1.2s0-1.9,0-1.9c0-.2,0-.6,0-1.3,0-.8,0-1.2,0-1.3v-.2c0,0,0-.1,0-.2,0,0,0,0,.1,0h.5c0,0,0,0,0,.1s0,0,0,.1c0,0,0,0,0,.1,0,.2,0,.5,0,1,0,.2,0,.6,0,1.3,0,.2,0,.5,0,.7,0,.2,0,.4,0,.6,0,.4,0,.8,0,1.4,0,.5,0,.9,0,1,0,0,0,0,0,.1s0,0,0,0c0,0,0,0,0,0,0,0-.2,0-.3,0h-.2ZM7.5,6.3c-.2,0-.3,0-.4-.2-.1-.1-.2-.3-.2-.4s0-.3.2-.4c.1-.1.3-.2.4-.2s.4,0,.5.1c.1,0,.2.2.2.4s0,.4-.2.5c-.1.1-.3.2-.5.2Z"/>
  <path class="st0" d="M1.6,13.2c-.2,0-.2,0-.2-.2v-4.6c0-.3,0-.8,0-1.5v-1.4c0-.1,0-.2,0-.2s0,0,.2,0c0,0,.2,0,.2,0,.2,0,.5,0,.7,0s.4,0,.6,0c.1,0,.2,0,.2,0,0,0,0,0,0,.1s0,.1,0,.2c0,0,0,.1,0,.2v.6c0,.6,0,1.1,0,1.4v1.7c0,.3,0,.5,0,.8v1.2s0,.2,0,.2v.3s0,.4,0,.4h1.6c0,0,1.3,0,1.3,0h0s0,0,0,0,0,0,0,0h0c0,0,0,.1,0,.2,0,0,0,.2,0,.2s0,0,0,0c0,0,0,0-.1,0h-.7c-.5,0-.9,0-1.1,0s-.8,0-1.8,0h-1Z"/>
</svg>