<svg width="28" height="60" viewBox="0 0 28 60" fill="none" xmlns="http://www.w3.org/2000/svg">
<path d="M14.3 55.43C8.58003 55.43 4.76669 53.2417 2.86002 48.865C0.953358 44.445 2.45981e-05 39.7217 2.45981e-05 34.695C2.45981e-05 29.8417 0.736691 25.9633 2.21002 23.06C3.68336 20.1133 5.46002 18.055 7.54002 16.885C9.66336 15.715 11.7867 15.13 13.91 15.13C17.8967 15.13 20.9084 16.1917 22.945 18.315C24.9817 20.395 26.2817 22.8867 26.845 25.79C27.4084 28.65 27.69 31.8783 27.69 35.475C27.69 38.3783 27.1917 41.39 26.195 44.51C25.2417 47.5867 23.7467 50.1867 21.71 52.31C19.7167 54.39 17.2467 55.43 14.3 55.43ZM13.845 42.82C15.275 42.82 16.315 42.1483 16.965 40.805C17.6584 39.4617 18.005 37.8367 18.005 35.93C18.005 33.46 17.68 31.7267 17.03 30.73C16.4234 29.69 15.4917 29.17 14.235 29.17C11.5484 29.17 10.205 31.5967 10.205 36.45C10.205 38.27 10.4434 39.7867 10.92 41C11.3967 42.2133 12.3717 42.82 13.845 42.82Z" fill="#F4EFEB"/>
</svg>
