<svg width="1353" height="34" viewBox="0 0 1353 34" fill="none" xmlns="http://www.w3.org/2000/svg">
<path d="M0.00668724 1.74883C0.00372343 1.52765 1.5306 1.388 4.58739 1.32988C6.11541 1.27317 10.7014 1.24128 18.3452 1.23421C22.9315 1.22997 29.811 1.22361 38.9836 1.21513C49.6853 1.23288 63.4443 1.23398 80.2607 1.21843L330.215 1.02875L729.224 0.742698C772.029 0.703112 863.756 0.673581 1004.4 0.654104C1161.87 0.619075 1248.24 0.580668 1263.53 0.538883L1302.51 0.461362C1319.33 0.44581 1331.56 0.475971 1339.21 0.551844C1348.38 0.626303 1352.97 0.774121 1352.97 0.995298L1350.7 2.73919C1350.71 2.98801 1342.3 3.1202 1325.48 3.13575C1317.84 3.14282 1310.19 3.13607 1302.55 3.11549C1294.91 3.09491 1287.26 3.08816 1279.62 3.09523C1247.51 3.06962 1177.19 3.07936 1068.65 3.12444C1033.48 3.15696 944.051 3.18437 800.345 3.20667C752.953 3.22285 706.325 3.23833 660.462 3.25309C616.127 3.26644 577.144 3.28867 543.511 3.31977C470.13 3.38763 376.876 3.4877 263.747 3.61996C152.148 3.77846 85.6474 3.89525 64.2454 3.97034C58.1308 4.00364 49.7227 4.02524 39.0214 4.03514C28.32 4.04504 21.4401 4.02375 18.3819 3.97128C13.7952 3.94788 10.7363 3.85394 9.20532 3.68947C3.08729 3.47395 0.0250258 3.11736 0.0183573 2.61971C0.0120592 2.14971 0.00816915 1.85942 0.00668724 1.74883Z" fill="#04389E"/>
</svg>
