<?xml version="1.0" encoding="UTF-8"?>
<svg xmlns="http://www.w3.org/2000/svg" xmlns:xlink="http://www.w3.org/1999/xlink" version="1.1" viewBox="0 0 525.9 1717.3">
  <!-- Generator: Adobe Illustrator 29.8.4, SVG Export Plug-In . SVG Version: 2.1.1 Build 6)  -->
  <defs>
    <style>
      .st0, .st1 {
        fill: #374928;
      }

      .st2 {
        stroke: #2d241e;
      }

      .st2, .st3, .st4 {
        fill: #e5b998;
      }

      .st2, .st1, .st4 {
        stroke-miterlimit: 10;
      }

      .st5 {
        fill: #51452e;
      }

      .st6 {
        fill: #12151e;
      }

      .st1 {
        stroke: #374928;
      }

      .st7 {
        fill: #3d211a;
      }

      .st8 {
        fill: #dd734e;
      }

      .st9 {
        clip-path: url(#clippath-1);
      }

      .st4 {
        stroke: #8c4f26;
      }

      .st10 {
        fill: #efd6d0;
      }

      .st11 {
        fill: #493a2c;
      }

      .st12 {
        fill: #b58a6b;
      }

      .st13 {
        fill: #303542;
      }

      .st14 {
        clip-path: url(#clippath);
      }
    </style>
    <clipPath id="clippath">
      <path class="st10" d="M226.9,248.2s11.6-4.5,28.6,0c-5.5,11-20.7,13-28.6,0Z"/>
    </clipPath>
    <clipPath id="clippath-1">
      <path class="st10" d="M293.6,247.2s11.6-4.5,28.6,0c-5.5,11-20.7,13-28.6,0Z"/>
    </clipPath>
  </defs>
  <g id="Layer_2">
    <path class="st13" d="M156.8,1460.5c5.1,23.1-63.8,90.1-78,98.9-36.8,67.6,84,63.3,129.1-.3-4.2-83.8,30-106.3-51.1-98.6Z"/>
    <path class="st13" d="M401.1,1460.5c-5.1,23.1,63.8,90.1,78,98.9,36.8,67.6-84,63.3-129.1-.3,4.2-83.8-30-106.3,51.1-98.6Z"/>
    <g>
      <path class="st3" d="M235.7,313.5l1.7,52.3-15.2,14.4s10.6,42.7,55.4,37.9c44.8-4.8,56.2-35.3,56.2-35.3l-15.8-12.6-.4-58.8-81.9,2.2Z"/>
      <path class="st4" d="M211.5,217l11,72.3s8.8,30.7,24.5,40.5c15.7,9.9,24.5,16.1,35.4,12.4,11-3.7,38-23.4,42.7-32.1,4.7-8.8,16.4-38.7,18.3-58.4,1.8-19.7-4.4-59.9-4.4-59.9l-17.2-36.1h-65l-45.3,25.2v36.1Z"/>
      <path class="st11" d="M284.4,237.4c0-1.8,1.3-3.4,3.1-3.6,10.1-1.6,41.5-5.3,47.5,6.8-11.6-4.1-12.9-3.7-27.8-3.2-10.8.4-18.1,3.2-21.3,1.8s-1.5-.4-1.5-1.1v-.6Z"/>
      <path class="st11" d="M265.3,237.4c0-1.8-1.3-3.4-3.1-3.6-10.1-1.6-41.5-5.3-47.5,6.8,11.6-4.1,12.9-3.7,27.8-3.2,10.8.4,18.1,3.2,21.3,1.8s1.5-.4,1.5-1.1v-.6Z"/>
      <g>
        <path class="st10" d="M226.9,248.2s11.6-4.5,28.6,0c-5.5,11-20.7,13-28.6,0Z"/>
        <g class="st14">
          <circle class="st7" cx="241.7" cy="246" r="7"/>
        </g>
      </g>
      <g>
        <path class="st10" d="M293.6,247.2s11.6-4.5,28.6,0c-5.5,11-20.7,13-28.6,0Z"/>
        <g class="st9">
          <circle class="st7" cx="308.4" cy="244.9" r="7"/>
        </g>
      </g>
      <path class="st5" d="M272.3,241.5c-17.9,1.3-6.4-3.2-6.4-3.2,0,0,16.8,3.2,16.4-17.9-.4-21.1-10.6,8.3-10.6,8.3,0,0-17.9,19.6-46,13,14.1-2.8,19.2-.9,24.9-9.8,5.7-8.9-12.8-16.6-1.3-31.9,11.5-15.3,1.9,25.6-16,24.9-17.9-.6-15.3,24.9-15.3,24.9v26.2c-.1,0-17.2-7.7-23-31.9-5.7-24.3-14.7-10.9-10.2-3.8s-3.8-37.7-3.8-37.7l28.1-55.6,93.3-6.4s40.2-16,49.8,16,17.9,52.4,9.6,73.5c-8.3,21.1-15.3,22.4-13.4,30.7s-10.9-7.7-7-15.3c3.8-7.7-5.1-30-5.1-30,0,0-7.7,13.4-1.3,21.7,6.4,8.3,14.5-29.7-8.9-24.9-30.4,6.2-35.8,28.1-53.7,29.4Z"/>
      <path class="st12" d="M268.7,256.2c-2.5,6.9-5.1,13.9-5.5,21.3-.2,1.9.5,3.3,2.2,4.1,1.6,1,3.3,1.2,5.1,1.2,3.6,0,7.3-.2,11-.6,2.6-.2,4.9-2.2,5.2-4.8,0,2.8-2.4,5.1-5.1,5.4-3.7.6-7.4,1.1-11.1,1-2.8,0-6.2-.7-7.8-3.3-.5-1-.5-2-.4-3,.5-7.5,3.3-14.5,6.5-21.2h0Z"/>
      <path class="st8" d="M250.2,305.7c16.3-.7,32.6-1.1,48.9,0-16,.3-32.9.6-48.9,0h0Z"/>
      <path class="st3" d="M345.5,245.2s6.6-10.6,8.4,1-21.8,43-21.8,43l8.9-33,4.5-11Z"/>
      <path class="st3" d="M217,249.9s-6.6-10.6-8.4,1c-1.8,11.7,20.1,43,20.1,43l-7.2-33-4.5-11Z"/>
    </g>
    <path class="st6" d="M179.3,821.7c-78.5,24-29.5,327.4-49.4,392.5,2.7,60.9-45.3,212,13,237.4,18.2,1,8.1,17.2,8.1,17.2,10.4,21.9,37.5,23.2,58.6,24.2,21.4,10.6,13.5-54.5,32.5-49.5,69.5,4.2,27.9-138.3,20.8-196.5-18.4-59.1,3.2-27.6-6.8-89.2,9.7-108.9-1.5-128.8,19.3,7.8,8.7,100.2,41,145,54.8,225.5-4.7,37.6-20.4,78.3,7.8,81.4,28.2,3.1-1.4,6.7,1.7,14.5-.6,28.8,74,17,88.1,23,0,0,20.7-21.7,39.8-33.1,11.5-6.9-21.6-13.8-6-35.7,15.7-21.9,25.6-6.3,12-50.1-14.4-133-32.5-263.2-55.9-416.5-6.6-52.8-2.3-106.7-39.1-147.2,0,0,20.4-47,20.4-47l-231.8-8.2,12.1,49.5Z"/>
    <polygon class="st2" points="119.8 799.2 147.8 859.7 186.6 825.2 162 765.6 119.8 799.2"/>
    <polygon class="st2" points="416.6 808.1 388.7 868.5 349.9 834.1 374.5 774.4 416.6 808.1"/>
    <path class="st1" d="M358.7,473.3c30.4,136.2,77.4,146.6,5.5,292.5-7.3,30.8,0,36.2,0,36.2,0,0,44.5,44.7,44.5,34s16.7-34.6,29.8-36.2c31.9-3.9,23-26,25.1-39.4,9.6-20.8,17.9-35.1,8.5-55,56.5-19.8-21.7-252.7-18.3-259.6,0-19-24.2-35.1-24.2-35.1-6.4.8-87.7-55.5-102.6-59.2-1.2-3.9,7.5-17.4,4.1-21.6-3.3-4.3-14.4-8.4-9.9,0,4.5,8.4-47.1,60.3-47.1,60.3-.6-1.6-50.1-64.9-38.8-72.1,0,0-12.3-7.5-20.3,2.1-8,9.7-2.1,10.2,4,18.7,6.1,8.5-10.6,6.1-10.6,6.1-3.9,31.1,23.1,15.9-33.4,37.1-12.8-4.8-37.1,17.1-44.1,22.9-13.5,12.2-25.2,1.4-33.1,30.8-4.5,50-33.1,118.5-38.3,147.5,12.4,14.7-3.4,25.8-7.1,38.3,5.9,12.8,13.6,14.6,13.2,34.4,8.9,30.6,16.1,67.6,29.3,97.6,14.5,14.7,27.7,80.6,43.6,87.2,71.1-55.2,25.7-28.6,12.3-121.8-4.7-15.1-4.7-46.9.9-50.9,2.4-3.6-11.4-21.1-3-28.3,28.4-10.5,4.6-91.8,9.6-101.8,0,0,3.2,122.9,0,134.3-2.9,34-14.3,91.1,12.7,107,11.2,0,162.5,10.1,185.5,14.4,70.5-24.1,22.7-309.8,2.2-320.3Z"/>
  </g>
  <g id="Layer_3">
    <path class="st0" d="M274.1,390.2c-26.1-9.9-129.9-297.6,31.5-177.2,62.1,30.5-22.6,137.5-31.5,177.2,10.5-.3,96.8-111.4,93.3-125.2C426.1-16,28,137,235.8,347.9"/>
  </g>
</svg>